<svg xmlns="http://www.w3.org/2000/svg" aria-hidden="true" style="width:0;height:0;position:absolute;overflow:hidden"><defs><symbol id="facebook" viewBox="0 0 28 28"><path d="M21 2.333h-3.5a5.833 5.833 0 0 0-5.833 5.834v3.5h-3.5v4.666h3.5v9.334h4.667v-9.334h3.5L21 11.667h-4.666v-3.5A1.167 1.167 0 0 1 17.5 7H21V2.333Z" stroke="#fff" stroke-width="2" stroke-linecap="round" stroke-linejoin="round"/></symbol><symbol id="instagram" viewBox="0 0 28 28"><path d="M19.833 2.333H8.166a5.833 5.833 0 0 0-5.833 5.834v11.666a5.833 5.833 0 0 0 5.833 5.834h11.667a5.833 5.833 0 0 0 5.833-5.834V8.167a5.833 5.833 0 0 0-5.833-5.834Z" stroke="#fff" stroke-width="2" stroke-linecap="round" stroke-linejoin="round"/><path d="M18.667 13.265a4.667 4.667 0 1 1-9.234 1.369 4.667 4.667 0 0 1 9.234-1.369ZM20.417 7.583h.011" stroke="#fff" stroke-width="2" stroke-linecap="round" stroke-linejoin="round"/></symbol><symbol id="icon-Logo" viewBox="0 0 41 32"><path d="M16.241 31.144v-4.916l-.219-.922v-8.384c0-1.785-.527-3.16-1.58-4.126-1.024-.995-2.575-1.492-4.653-1.492-1.375 0-2.721.234-4.038.702-1.317.439-2.429 1.039-3.336 1.8L.659 10.645c1.2-.966 2.634-1.697 4.302-2.195a17.807 17.807 0 0 1 5.311-.79c3.19 0 5.648.775 7.374 2.326s2.59 3.921 2.59 7.111v14.047h-3.994zm-7.637.263c-1.727 0-3.248-.293-4.565-.878-1.288-.585-2.283-1.39-2.985-2.414C.352 27.062 0 25.876 0 24.559c0-1.258.293-2.4.878-3.424.615-1.024 1.595-1.844 2.941-2.458 1.375-.615 3.219-.922 5.531-.922h7.375v3.029H9.526c-2.107 0-3.526.351-4.258 1.053s-1.097 1.551-1.097 2.546c0 1.141.454 2.063 1.361 2.765.907.673 2.166 1.01 3.775 1.01 1.58 0 2.956-.351 4.126-1.053 1.2-.702 2.063-1.727 2.59-3.073l.834 2.897c-.556 1.375-1.536 2.473-2.941 3.292-1.405.79-3.175 1.185-5.311 1.185z"/><path d="M29.718 31.407c-2.487 0-4.682-.512-6.584-1.536-1.873-1.024-3.336-2.429-4.39-4.214-1.024-1.785-1.536-3.834-1.536-6.145s.497-4.36 1.492-6.145c1.024-1.785 2.414-3.175 4.17-4.17 1.785-1.024 3.79-1.536 6.014-1.536 2.253 0 4.243.498 5.97 1.492s3.073 2.4 4.038 4.214c.995 1.785 1.492 3.878 1.492 6.277 0 .176-.015.38-.044.614 0 .234-.015.454-.044.659H20.499v-3.029h17.602l-1.712 1.053c.029-1.492-.278-2.824-.922-3.995s-1.536-2.078-2.678-2.722c-1.112-.673-2.414-1.01-3.907-1.01-1.463 0-2.765.337-3.907 1.01-1.141.644-2.034 1.566-2.678 2.765-.644 1.171-.966 2.517-.966 4.038v.702c0 1.551.351 2.941 1.053 4.17.732 1.2 1.741 2.136 3.029 2.809s2.765 1.01 4.433 1.01c1.375 0 2.619-.234 3.731-.702a8.183 8.183 0 0 0 2.985-2.107l2.327 2.721c-1.053 1.229-2.37 2.166-3.951 2.809-1.551.644-3.292.966-5.224.966zm7.593-28.115H21.947V0h15.364v3.292z"/></symbol><symbol id="icon-tel" viewBox="0 0 32 32"><path d="m29.276 6.061-3.873-3.869a2.5 2.5 0 0 0-3.55 0l-4.171 4.163a2.509 2.509 0 0 0 0 3.556l3.258 3.261a14.754 14.754 0 0 1-3.142 4.629 14.78 14.78 0 0 1-4.625 3.149l-3.258-3.261a2.5 2.5 0 0 0-1.775-.738 2.482 2.482 0 0 0-1.775.738L2.19 21.852a2.509 2.509 0 0 0 0 3.556l3.869 3.869a4.355 4.355 0 0 0 3.062 1.269c.236 0 .465-.018.698-.058 4.814-.793 9.593-3.356 13.451-7.21 3.855-3.861 6.415-8.639 7.215-13.456a4.335 4.335 0 0 0-1.211-3.76zm-1.367 3.327c-.709 4.287-3.015 8.563-6.487 12.035S13.676 27.2 9.389 27.909a1.711 1.711 0 0 1-1.484-.48l-3.8-3.8 4.029-4.032 4.389 4.396.785-.291A17.504 17.504 0 0 0 23.697 13.31l.291-.785-4.393-4.389 4.029-4.032 3.8 3.8a1.7 1.7 0 0 1 .484 1.483z"/></symbol><symbol id="icon-nav-menu-button" viewBox="0 0 32 32"><path d="M4 5.333h24V8H4V5.333zm8 9.334h16v2.667H12v-2.667zM4 24h24v2.667H4V24z"/></symbol><symbol id="icon-icon-menu" viewBox="0 0 32 32"><path fill="none" stroke="#fff" style="stroke:var(--color1,#fff)" stroke-linejoin="round" stroke-linecap="round" stroke-width="2.667" d="M24 8 8 24M8 8l16 16"/></symbol><symbol id="icon-tel" viewBox="0 0 32 32"><path d="m29.276 6.061-3.873-3.869a2.5 2.5 0 0 0-3.55 0l-4.171 4.163a2.509 2.509 0 0 0 0 3.556l3.258 3.261a14.754 14.754 0 0 1-3.142 4.629 14.78 14.78 0 0 1-4.625 3.149l-3.258-3.261a2.5 2.5 0 0 0-1.775-.738 2.482 2.482 0 0 0-1.775.738L2.19 21.852a2.509 2.509 0 0 0 0 3.556l3.869 3.869a4.355 4.355 0 0 0 3.062 1.269c.236 0 .465-.018.698-.058 4.814-.793 9.593-3.356 13.451-7.21 3.855-3.861 6.415-8.639 7.215-13.456a4.335 4.335 0 0 0-1.211-3.76zm-1.367 3.327c-.709 4.287-3.015 8.563-6.487 12.035S13.676 27.2 9.389 27.909a1.711 1.711 0 0 1-1.484-.48l-3.8-3.8 4.029-4.032 4.389 4.396.785-.291A17.504 17.504 0 0 0 23.697 13.31l.291-.785-4.393-4.389 4.029-4.032 3.8 3.8a1.7 1.7 0 0 1 .484 1.483z"/></symbol><symbol id="icon-nav-menu-button" viewBox="0 0 32 32"><path d="M4 5.333h24V8H4V5.333zm8 9.334h16v2.667H12v-2.667zM4 24h24v2.667H4V24z"/></symbol><symbol id="icon-icon-menu" viewBox="0 0 32 32"><path fill="none" stroke="#fff" style="stroke:var(--color1,#fff)" stroke-linejoin="round" stroke-linecap="round" stroke-width="2.667" d="M24 8 8 24M8 8l16 16"/></symbol><symbol id="icon-down-arrow-right" viewBox="0 0 32 32"><path fill="#fff" style="fill:var(--color1,#fff)" d="M0 0h32v32H0V0z"/><path fill="#fff" style="fill:var(--color2,#fff)" d="M-110.08-1505.28h204.8V383.36h-204.8v-1888.64z"/><path style="fill:var(--color3,#000)" d="m21.674 14.79 1.203.818-22.876.001v.64l22.733-.001-1.133.651.319.555 2.608-1.498-2.493-1.695-.36.529z"/></symbol><symbol id="icon-down-arrow-left" viewBox="0 0 32 32"><path fill="#fff" style="fill:var(--color1,#fff)" d="M0 0h32v32H0V0z"/><path fill="#fff" style="fill:var(--color2,#fff)" d="M-62.08-1505.28h204.8V383.36h-204.8v-1888.64z"/><path style="fill:var(--color3,#000)" d="M7.703 17.067 6.5 16.249l22.876-.001v-.64l-22.733.001 1.133-.651-.319-.555-2.608 1.498 2.493 1.695.36-.529z"/></symbol><symbol id="icon-close" viewBox="0 0 32 32"><path d="M29.262.055c-.661.112-.391-.139-7.063 6.526L16 12.773 3.893.668 2.282 2.282.668 3.893 12.773 16l-6.194 6.199C2.332 26.45.348 28.471.273 28.624c-.455.914-.32 1.918.359 2.642.271.296.619.516 1.013.629l.016.004c.539.167 1.161.105 1.717-.171.153-.075 2.174-2.059 6.425-6.306l6.199-6.194 12.107 12.105 1.611-1.614 1.614-1.611-12.105-12.107 6.194-6.199c4.247-4.251 6.231-6.272 6.306-6.425.48-.962.295-2.039-.471-2.754-.537-.503-1.221-.695-1.995-.567z"/></symbol><symbol id="icon-Error-logo" viewBox="0 0 32 32"><path d="M0 16C0 7.162 7.162 0 16 0s16 7.162 16 16c0 8.837-7.163 16-16 16S0 24.837 0 16zm10.938-2.994 2.944 2.938-2.944 2.994c-.581.588-.581 1.538 0 2.069.588.637 1.537.637 2.069 0l2.938-2.888 2.994 2.888c.588.637 1.538.637 2.069 0 .637-.531.637-1.481 0-2.069l-2.888-2.994 2.888-2.938c.637-.531.637-1.481 0-2.069-.531-.581-1.481-.581-2.069 0l-2.994 2.944-2.938-2.944c-.531-.581-1.481-.581-2.069 0-.581.588-.581 1.537 0 2.069z"/></symbol><symbol id="icon-correct-logo" viewBox="0 0 32 32"><path d="M0 16C0 7.162 7.162 0 16 0s16 7.162 16 16c0 8.837-7.163 16-16 16S0 24.837 0 16zm23.237-2.762c.681-.681.681-1.794 0-2.475s-1.794-.681-2.475 0l-6.763 6.762-2.763-2.762c-.681-.681-1.794-.681-2.475 0s-.681 1.794 0 2.475l4 4a1.755 1.755 0 0 0 2.475 0l8-8z"/></symbol><symbol id="icon-thank-you-flower" viewBox="0 0 42 32"><path fill="#f58b3d" style="fill:var(--color1,#f58b3d)" opacity=".255" d="M39.13 25.599c.542 3.691-12.608 6.099-23.927 4.419S-1.308 21.776 4.093 18.28c5.401-3.496 34.495 3.628 35.037 7.319z"/><path fill="#f58b3d" style="fill:var(--color1,#f58b3d)" d="M22.863 10.218c.205-.142.522-.052.728.032.079.032.282.136.433.253a8.04 8.04 0 0 1-.181-1.27c-.006-.089.002-.189.009-.29l.007-.103a.057.057 0 0 1-.016-.034l-.002.015c0 .006-.001.009-.002.01s-.003-.002-.007-.008a.03.03 0 0 0-.005-.007c-.152-.207-.28-.441-.298-.698-.015-.218.182-.63.46-.344.125.127.092 1.022-.095 1.077.05.296.113.592.192.884a.145.145 0 0 1 .036-.001 2.28 2.28 0 0 1 .002-.179c.028-.235.244-.711.587-.619.263.071.102.364.012.492-.144.206-.308.296-.514.403-.004.044-.035.07-.073.079.139.472.32.932.558 1.367l.006-.028c.03-.132.066-.286.088-.318.117-.169.375-.376.613-.276.5.21-.043.815-.469.881a.184.184 0 0 1-.056.05c.083.131.171.26.266.385.142.188.295.376.454.562.005-.146.068-.471.086-.506.109-.212.424-.431.679-.28.287.17.027.491-.137.637-.067.06-.399.278-.516.279.386.44.813.872 1.246 1.289a6.914 6.914 0 0 1-.078-.757c.027-.294.239-.765.658-.65.406.111.226.6.087.833a1.27 1.27 0 0 1-.341.383c-.025.018-.058.032-.091.047a.384.384 0 0 0-.105.058c-.023.021-.03.044-.037.067a.122.122 0 0 1-.041.07c.234.224.47.444.703.657.11.101.222.2.334.297.062-.023.15.007.145.087a.094.094 0 0 1-.008.031l.258.216a.492.492 0 0 1 .003-.09c-.062.081-.06-.037-.058-.127a.565.565 0 0 0-.001-.075c-.009-.058-.021-.115-.033-.172-.025-.122-.05-.243-.049-.369.003-.267.188-.715.579-.556.359.146.229.542.093.79a2.252 2.252 0 0 1-.326.431 1.068 1.068 0 0 0-.07.089c-.036.048-.071.095-.097.112.334.272.675.537 1.017.801l.458.356c.007-.026.012-.052.017-.076-.009.01-.022.014-.039.013l-.018-.079c-.094-.39-.38-1.58.395-1.349.568.169.167 1.205-.257 1.567.257.202.512.407.761.618.18.153.355.311.523.474-.087-.211-.169-.485-.115-.702.078-.317.445-.616.803-.436.446.226.103.534-.219.823-.165.148-.323.29-.369.414.534.535.99 1.13 1.295 1.807.331.737.639 1.726.469 2.55.031-.362-.103-.817-.197-1.137l-.036-.122a6.17 6.17 0 0 0-.608-1.429c-.425-.723-.987-1.336-1.635-1.893-.148.047-.308.134-.441.206a2.17 2.17 0 0 1-.204.103c-.248.098-.724.237-.882-.07-.155-.302.241-.471.487-.539.238-.065.452-.057.673-.004a48.735 48.735 0 0 0-1.046-.814l-.194-.148a3.27 3.27 0 0 0-.293.266c-.333.325-.727.71-1.078.396-.531-.475.485-.958.917-.92a.884.884 0 0 1 .155.029c-.441-.341-.876-.69-1.287-1.062-.074.012-.191.111-.332.23-.317.267-.753.634-1.082.345-.237-.209-.156-.534.073-.72s.564-.186.848-.124c.123.027.236.079.341.142l.013.001c-.404-.371-.811-.75-1.203-1.142l-.021.006a.112.112 0 0 1-.1.03l-.062.019c-.31.098-.709.223-1.018.169-.228-.04-.434-.208-.241-.416.156-.169.581-.145.789-.105.101.02.211.076.322.133.046.024.093.048.139.069a.093.093 0 0 1 .056-.043 14.957 14.957 0 0 1-1.091-1.227c-.101.014-.214.055-.33.097-.279.101-.578.209-.793-.024-.317-.344.279-.544.563-.511.096.011.19.036.281.068a4.317 4.317 0 0 1-.56-1.117l-.004.002-.006.003.006-.003.004-.002a2.672 2.672 0 0 1-.037-.118.42.42 0 0 0-.053-.023c.129.081-.415.121-.516.128-.225.016-.527.023-.692-.146-.139-.141-.13-.35.039-.468zm10.36 11.888a.885.885 0 0 1-.078.319c.033-.103.059-.209.078-.319z"/><path fill="#f1f447" style="fill:var(--color2,#f1f447)" opacity=".2" d="M12.645 2.591c-.149-.103-.381-.037-.532.024a1.577 1.577 0 0 0-.316.183 5.795 5.795 0 0 0 .133-.918c.004-.065-.001-.137-.006-.21l-.005-.074a.045.045 0 0 0 .012-.025.05.05 0 0 1 .001.011l.001.007.005-.006a.018.018 0 0 1 .004-.005c.111-.15.205-.319.218-.504.011-.157-.132-.455-.336-.249-.091.092-.068.739.069.778a7.17 7.17 0 0 1-.14.64c-.009-.001-.017-.002-.026 0a1.67 1.67 0 0 0-.001-.13c-.02-.17-.178-.514-.428-.447-.192.052-.075.263-.009.356.105.149.224.214.375.291.003.032.026.051.053.057a4.911 4.911 0 0 1-.408.988l-.005-.02a1.338 1.338 0 0 0-.064-.23c-.085-.122-.274-.271-.448-.199-.365.152.031.589.342.637a.154.154 0 0 0 .041.037c-.06.095-.125.188-.194.278a8.59 8.59 0 0 1-.332.407 1.987 1.987 0 0 0-.063-.366c-.08-.153-.309-.311-.496-.202-.21.123-.02.355.1.46.049.043.291.201.377.202-.282.318-.594.631-.911.933.026-.135.061-.506.057-.548-.02-.213-.175-.553-.48-.47-.297.08-.166.434-.064.603a.9.9 0 0 0 .249.277c.018.013.043.023.067.034.029.013.058.025.077.042.017.015.022.032.027.049s.011.035.03.05a43.29 43.29 0 0 1-.513.476c-.08.073-.162.144-.244.215-.045-.017-.109.005-.106.063 0 .008.003.016.005.022l-.189.156a.301.301 0 0 0-.002-.065c.046.058.044-.027.042-.092 0-.023-.001-.043.001-.054a2.47 2.47 0 0 1 .024-.124 1.2 1.2 0 0 0 .036-.267c-.002-.193-.137-.517-.423-.402-.262.106-.167.392-.068.571.063.114.148.215.238.312a.754.754 0 0 1 .051.064c.026.034.052.068.071.081-.244.197-.493.388-.742.58l-.335.258a.691.691 0 0 1-.012-.055c.007.007.016.01.029.01l.014-.057c.069-.282.278-1.143-.288-.976-.415.123-.123.871.187 1.133-.188.146-.374.295-.556.447-.131.11-.259.225-.382.343.064-.153.123-.351.084-.508-.057-.229-.325-.445-.586-.315-.326.163-.075.386.16.595.12.107.236.21.269.299-.39.387-.723.817-.946 1.307-.242.533-.467 1.248-.343 1.844-.023-.262.075-.591.144-.822l.026-.089c.104-.358.251-.707.445-1.033.311-.523.721-.967 1.195-1.37.108.034.225.097.322.149.059.032.111.06.149.074.181.07.529.171.644-.051.114-.218-.176-.341-.355-.389a.966.966 0 0 0-.492-.003c.251-.201.508-.395.764-.589l.142-.107c.065.048.137.118.214.192.243.235.53.513.787.286.388-.344-.353-.692-.669-.665a.609.609 0 0 0-.113.021 15.5 15.5 0 0 0 .94-.769c.054.009.139.08.242.166.231.193.55.458.79.249.173-.151.114-.386-.053-.521s-.412-.135-.619-.089a.851.851 0 0 0-.249.103h-.01a28.3 28.3 0 0 0 .879-.826l.015.004c.017.019.046.026.073.022l.044.014c.227.07.518.161.744.122.166-.029.317-.151.177-.301-.114-.122-.425-.104-.576-.075-.074.014-.154.055-.235.096-.034.017-.068.035-.101.05a.067.067 0 0 0-.041-.031c.283-.285.552-.58.797-.887.074.01.156.04.241.07.204.073.422.151.579-.018.232-.249-.204-.393-.411-.37a.903.903 0 0 0-.205.05c.178-.253.314-.524.41-.808l.003.001.004.002-.004-.002-.003-.002c.01-.028.019-.057.027-.086a.424.424 0 0 1 .039-.017c-.094.059.303.087.377.092.164.012.384.016.505-.105.101-.102.095-.253-.028-.338zm-7.577 8.576c.007.08.029.152.071.212a1.124 1.124 0 0 1-.071-.212z"/><path fill="#b45661" style="fill:var(--color3,#b45661)" opacity=".49" d="M28.784 16.63c.805-.038 1.802.39 1.888 1.187.062.579.043 1.156.14 1.734.077.462.24.906.463 1.326.214.405.659.749.775 1.182.074.276.032.663-.069.933-.123.328-.058.302.188.577.482.539.917 1.091 1.224 1.735.443.927.733 2.01.569 3.025-.021.129-.046.591-.241.624-.218.036-.116-.228-.104-.314.074-.545.14-1.022.051-1.575-.345-2.136-2.028-3.543-3.125-5.355-.06-.093-.188-.316-.276-.463-.14-.232-.28-.673-.469-.845-.356-.324-.029.327.041.451.088.157.184.324.274.462.411.639.87 1.336 1.295 1.994-1.837.381-3.131-1.629-3.624-2.95-.406-1.089-.892-3.634 1.001-3.727z"/><path fill="#e7502f" style="fill:var(--color4,#e7502f)" opacity=".49" d="M39.581 14.609c-1.346.097-2.211.906-2.613 2.037-.217.61-.242 1.236-.362 1.862-.181.942-.572 1.657-1.334 2.328-.236.208-.41.421-.534.65a2.785 2.785 0 0 0-.616.802c-.201.403-.257.886-.026 1.288.062.108.218.325.379.423-.603 1.168-.934 2.448-.897 3.726.023.771.064 1.543.112 2.314.013.207.087.549.198.202.102-.318-.026-.816-.038-1.147-.057-1.615-.107-3.084.624-4.593.077-.158.158-.315.242-.471l.014-.009.009.007.021-.031a.438.438 0 0 0 .066-.084c.065-.082.138-.178.138-.231v-.001c.452-.672.97-1.307 1.499-1.929-.004.005.574-.712.485-.316-.043.191-.468.554-.64.756-.38.45-.826 1.02-1.196 1.571-.05.026-.12.154-.171.249-.028.048-.054.097-.08.14 1.313.395 2.335-.4 3.031-1.326l.002-.003c.212-.256.429-.509.7-.711.453-.337.937-.397 1.471-.563 1.455-.453 2.074-2.169 2.27-3.442.222-1.437-.863-3.64-2.756-3.498z"/><path fill="#e7502f" style="fill:var(--color4,#e7502f)" opacity=".49" d="M36.921 10.585c-1.382 1.309-2.05 3.125-2.578 4.832-.591 1.906-.981 3.842-.996 5.825-.01 1.302-.049 2.613.035 3.914.03.462.08.925.161 1.382.007.038.187 1.058.359.82.098-.135-.185-1.058-.206-1.212-.12-.866-.148-1.739-.142-2.611.01-1.436-.037-2.865.123-4.297.024-.214.043-.438.098-.647.059-.222-.016-.125.177-.213.187-.085.419-.073.613-.181.771-.426 1.166-1.519 1.473-2.236.351-.82.565-1.695.735-2.559.125-.634.215-1.265.265-1.907.016-.202.017-.414.061-.613.012-.054.071-.149.069-.196-.005-.101-.071-.16-.077-.244a3.957 3.957 0 0 0-.17.146zM29.385 28.026c0 2.165 1.928 3.92 4.307 3.92s4.307-1.755 4.307-3.92z"/><path fill="#b45661" style="fill:var(--color3,#b45661)" opacity=".49" d="M36.644 24.594c1.066-.071 2.257.711 2.771 1.526.414.657.345 1.519.089 2.217-.172.467-.546 1.133-1.17 1.14-.781.008-.818-.87-.834-1.383-.02-.683-.115-1.277-.706-1.742-.073-.057-.15-.111-.226-.165-.068-.048-.136-.095-.201-.146l-.032-.024c-.209-.16-.428-.328-.455-.591-.039-.382.198-.45.56-.38a.895.895 0 0 1 .087.028c.185.064.579.2.504.037-.028-.061-.13-.11-.26-.146-.335-.033-.734-.071-.849-.048-1.239.247-1.721 1.809-1.849 2.801a8.795 8.795 0 0 0-.035.322h-.228c.016-.26.036-.519.084-.776.183-.983.754-2.426 2.006-2.586.046-.006.216-.007.422.004a.816.816 0 0 1 .322-.087z"/><path fill="#b45661" style="fill:var(--color3,#b45661)" opacity=".25" d="M10.516 9.471c.248-.322.708-1.139 1.057-1.254.225-.074.159.692.162.838.011.565-.05 1.127-.124 1.687-.135 1.011-.574 1.911-1.178 2.771-.31.443-.675.891-1.179 1.167-.232.127-.511.149-.741.258-.267.128-.122.024-.242.278-.167.351-.22.805-.298 1.18-.355 1.722-1.214 10.823-1.065 12.574.013.155-.225.192-.237.003-.063-1.005.483-7.963.758-10.238s.554-4.286.834-5.073c.339-.955.952-2.104 1.461-2.994.237-.414.495-.813.79-1.196z"/><path fill="#f1f447" style="fill:var(--color2,#f1f447)" opacity=".25" d="M12.357 20.631c.645-.431 1.344.383.76.814-.323.238-.66.154-.85-.045-.123.137-.239.28-.35.401-.338.368-.657.745-.963 1.131-.634.801-1.177 1.648-1.746 2.479a52.653 52.653 0 0 0-1.625 2.486c-.431.713-1.004 1.551-1.152 2.332.224-1.657 1.072-3.249 2.083-4.71 1.002-1.449 2.153-3.031 3.705-4.174-.158-.211-.162-.513.138-.713z"/><path fill="#b45661" style="fill:var(--color3,#b45661)" opacity=".25" d="M.113 16.59c.361.064.951.808 1.249 1.091.354.337.675.695.977 1.071a17.907 17.907 0 0 1 1.729 2.566 22.626 22.626 0 0 1 1.924 4.556c.287.975.473 1.985.584 2.988.021.189.239 1.648-.075 1.687-.282.035-.195-1.108-.209-1.263-.154-1.754-.616-3.461-1.257-5.114-.14-.36-.27-.801-.493-1.125-.161-.233-.001-.152-.284-.24-.243-.076-.52-.057-.769-.15-.541-.202-.973-.593-1.353-.987-.737-.766-1.322-1.594-1.626-2.575-.169-.544-.324-1.091-.41-1.652-.022-.145-.218-.894.015-.852z"/><path fill="#e7502f" style="fill:var(--color4,#e7502f)" opacity=".25" d="M1.538 4.223c1.36 2.147 2.478 4.504 3.199 6.893.437 1.447.743 2.932 1.047 4.406.47 2.282.915 4.565 1.042 6.888.127 2.336.379 5.031-.462 7.282.42-2.285.02-4.717-.051-7.016a38.218 38.218 0 0 0-.26-3.275c-.125-1.058-.329-2.112-.518-3.162-.092-.511-.19-1.022-.288-1.532-.03-.152-.042-.604-.148-.708s-.652-.147-.823-.224a4.397 4.397 0 0 1-.955-.607c-.55-.445-1.028-1.027-1.406-1.6C1.041 10.241.692 8.622.71 7.085c.003-.298.531-3.511.319-3.555a.672.672 0 0 0 .036-.042c.16.244.318.49.474.737z"/><path fill="#e7502f" style="fill:var(--color4,#e7502f)" opacity=".25" d="M16.218 11.965c.021-.028.158-.219.089-.207.14-.025-.193.211.156.066-.166.142-.07.327-.068.519.004.311-.054.62-.118.924a5.95 5.95 0 0 1-.473 1.397 6.412 6.412 0 0 1-2.261 2.524c-.477.301-.945.404-1.489.542-.344.088-.371.249-.554.553-.38.632-.753 1.262-1.088 1.916a64.92 64.92 0 0 0-1.155 2.356c-1.234 2.675-2.239 5.447-2.766 8.316-.013-1.69.417-3.431.959-5.043.395-1.174.909-2.306 1.457-3.426.133-.271.334-.62.391-.92.039-.21-.081-.412-.137-.633-.216-.861-.2-1.826-.011-2.692.209-.955.812-1.398 1.834-1.533.373-.049.848-.031 1.191-.176.373-.158.527-.677.739-1.009a13.937 13.937 0 0 1 2.024-2.506c.215-.209.447-.401.692-.58.155-.113.482-.251.588-.39z"/><path fill="#f1f447" style="fill:var(--color2,#f1f447)" opacity=".25" d="M4.475 29.354c-.026-.162.112-.308.292-.308h3.624c.18 0 .318.146.292.308l-.28 1.728c-.085.527-.582.917-1.167.917H5.923c-.585 0-1.082-.39-1.168-.917l-.28-1.728z"/><path fill="#f58b3d" style="fill:var(--color1,#f58b3d)" d="M1.5 29.93c0 1.143.099 2.07 1.43 2.07s1.43-.927 1.43-2.07z"/><path fill="#f58b3d" style="fill:var(--color1,#f58b3d)" d="M3.325 29.217a2.472 2.472 0 0 0-.131.234 2.968 2.968 0 0 1 .036-.495c.046-.286.117-.571.184-.855.048-.204.045-.571.226-.734.05-.035.062.034.062.064.001.006 0-.122-.049-.1-.287.135-.381.56-.473.773-.134.31-.248.628-.296.951a2.023 2.023 0 0 0-.02.245l-.029-.066a4.35 4.35 0 0 0-.669-1.018c-.069-.078-.933-.852-1-.733a.091.091 0 0 0 .042.043c.001.001.001.001.001-.001.051.075.195.19.24.255.113.165.201.339.29.51.189.362.364.727.534 1.094.039.085.081.17.123.255-.433-.569-1.011-1.085-1.807-1.38.272.126.45.362.633.544.221.219.454.431.676.65.262.258.569.529.821.814.244.466.48.932.627 1.421-.06-.169-.005-.403-.015-.58a3.53 3.53 0 0 0-.051-.421.794.794 0 0 1 .069.185c-.011-.098-.024-.196-.037-.294.035-.091.069-.176.092-.246.118-.359.259-.712.451-1.056.178-.318.381-.633.603-.937.103-.142.208-.284.313-.425.068-.093.133-.242.228-.33-.614.511-1.285 1.025-1.675 1.639zM40.574 5.894c-.176-.534-.589-.953-1.018-1.336-.835-.746-1.285-1.207-1.582-2.299-.175-.642-.353-1.322-.908-1.788-.404-.339-1.1-.624-1.641-.381-.832.452-1.055 1.379-.971 2.209.104 1.029.632 1.664 1.647 2.043.572.213.952.495 1.262.986.248.392.393.884.705 1.24.466.532 1.05.768 1.769.68-.674-1.128-1.461-2.267-2.411-3.217-.089-.095-.613-.461-.508-.624.117-.179.655.494.651.49.276.288.531.595.782.904l-.002.001c.258.317.514.639.766.965.102.138.201.278.295.421.139.21.359.806.587.936a.382.382 0 0 0 .136.049c.155.231.306.464.45.7.375.616.697 1.266.844 1.961.043.203.013.962.165 1.108.278.268.197-.248.18-.404-.138-1.289-.647-2.388-1.385-3.472.227-.27.26-.956.188-1.173zM31.045 6.517c.293-.314.999-.368 1.43-.347.534.026 1.082.144 1.589.287.836.235 1.649.665 2.386 1.081.089.05 1.182.649 1.086.754s-1.17-.607-1.409-.729c-.511-.262-.979-.571-1.542-.744a6.015 6.015 0 0 0-1.812-.245c-.079.001-.335-.049-.34.057-.006.104.419.05.494.05.309.003.62.029.925.078a4.618 4.618 0 0 1 1.597.558c-.136.289-.464.422-.807.35-.297-.062-.585-.217-.876-.261-.2-.031-.4-.012-.594.039-.512.135-.807.412-1.369.22-.441-.151-1.178-.694-.757-1.146zM29.783 1.449c-.651-.043-1.379.43-1.693.922-.253.397-.211.918-.054 1.34.105.282.334.685.715.689.477.005.5-.526.509-.836.012-.413.07-.772.431-1.053.045-.035.091-.067.138-.1.041-.029.083-.058.123-.088l.019-.015c.128-.097.262-.198.278-.357.024-.231-.121-.272-.342-.229-.007.001-.027.008-.053.017-.113.038-.354.121-.308.022.017-.037.08-.066.159-.088.205-.02.449-.043.519-.029.757.149 1.052 1.093 1.13 1.693.009.068.016.136.022.204h.139c-.01-.16-.022-.32-.052-.479-.112-.594-.46-1.466-1.225-1.563a2.208 2.208 0 0 0-.258.002.5.5 0 0 0-.197-.052z"/></symbol><symbol id="icon-shop-now" viewBox="0 0 166 166"><path d="M57.47 98.152a1 1 0 1 0 1.06 1.696l-1.06-1.696Zm52.387-30.722a1 1 0 0 0-.749-1.2l-8.769-2.024a1 1 0 0 0-.45 1.949l7.795 1.8-1.8 7.794a1 1 0 1 0 1.949.45l2.024-8.77ZM58.53 99.848l50.883-31.795-1.06-1.696L57.47 98.152l1.06 1.696ZM148.689 88.803c.045-.778.195-1.509.451-2.191.268-.682.581-1.21.94-1.587l.973.634c-.31.366-.59.843-.841 1.43a5.835 5.835 0 0 0-.414 1.869c-.052.898.048 1.553.3 1.964.265.412.631.632 1.098.659.348.02.624-.078.829-.295.216-.203.382-.482.499-.836.128-.353.242-.75.339-1.188.098-.44.207-.878.329-1.316.121-.425.281-.813.482-1.162.212-.348.487-.627.824-.836.336-.196.773-.28 1.312-.248.515.03.968.2 1.359.511.39.312.684.75.879 1.314.207.576.288 1.266.241 2.069a6.898 6.898 0 0 1-.358 1.818c-.191.602-.43 1.093-.716 1.473l-.992-.616c.312-.403.541-.84.689-1.312.159-.472.253-.947.281-1.427.049-.85-.064-1.488-.34-1.912-.265-.412-.625-.632-1.08-.658-.359-.02-.647.07-.863.275a2.47 2.47 0 0 0-.536.852c-.13.365-.243.761-.34 1.188-.097.44-.212.871-.345 1.296a5.137 5.137 0 0 1-.483 1.18c-.19.362-.452.641-.788.838-.325.21-.745.3-1.26.27-.551-.032-1.021-.215-1.41-.55-.378-.323-.664-.784-.858-1.384-.182-.588-.249-1.295-.201-2.122ZM156.708 101.14c-.161.75-.448 1.376-.863 1.876a3.052 3.052 0 0 1-1.589 1.058c-.657.203-1.432.209-2.323.017l-5.368-1.151.268-1.25 5.245 1.125c.974.209 1.76.12 2.358-.267.608-.373 1.006-.999 1.195-1.879.141-.657.13-1.26-.034-1.811a2.778 2.778 0 0 0-.903-1.372c-.437-.364-1.008-.622-1.712-.773l-4.857-1.042.268-1.25 13.059 2.802-.268 1.25-6.354-1.363.528-.145a3.384 3.384 0 0 1 1.264 1.744c.249.729.278 1.539.086 2.431ZM144.038 109.692c.346-.844.846-1.528 1.501-2.05a4.682 4.682 0 0 1 2.231-.934c.837-.111 1.688.011 2.554.366.877.359 1.569.87 2.076 1.531.507.662.813 1.403.918 2.224.104.821-.019 1.659-.369 2.514-.355.866-.858 1.555-1.509 2.066a4.375 4.375 0 0 1-2.214.941c-.825.116-1.677-.006-2.554-.366-.866-.355-1.558-.865-2.076-1.531a4.497 4.497 0 0 1-.934-2.231c-.1-.832.025-1.675.376-2.53Zm1.049.43c-.259.632-.35 1.25-.273 1.852.088.607.331 1.154.728 1.641.404.502.944.893 1.621 1.17.689.282 1.348.384 1.977.304a3.179 3.179 0 0 0 1.653-.665c.489-.37.861-.866 1.116-1.488.255-.621.338-1.236.25-1.843a3.317 3.317 0 0 0-.705-1.65c-.392-.498-.933-.888-1.621-1.17-.678-.278-1.336-.379-1.977-.304a3.44 3.44 0 0 0-1.677.674 3.54 3.54 0 0 0-1.092 1.479ZM138.584 120.298c.435-.69.987-1.214 1.654-1.574a4.247 4.247 0 0 1 2.23-.465c.814.059 1.658.364 2.53.915.873.551 1.506 1.177 1.9 1.88.404.709.587 1.442.549 2.198-.037.757-.277 1.485-.719 2.186-.48.761-1.082 1.332-1.805 1.713a4.261 4.261 0 0 1-2.334.528c-.827-.04-1.641-.312-2.443-.818-.812-.513-1.413-1.133-1.804-1.863a4.41 4.41 0 0 1-.528-2.333c.033-.817.29-1.606.77-2.367Zm-.273-5.94 10.945 6.907-.654 1.035-2.405-1.518-1.531-1.115-1.71-.866-5.328-3.362.683-1.081Zm1.28 6.47c-.359.568-.552 1.155-.58 1.762a3.443 3.443 0 0 0 .423 1.757c.311.565.775 1.042 1.394 1.433.62.391 1.246.601 1.879.632a3.442 3.442 0 0 0 1.769-.374c.545-.28.998-.704 1.356-1.272a3.57 3.57 0 0 0 .575-1.787 3.432 3.432 0 0 0-.424-1.757c-.306-.549-.769-1.018-1.388-1.409-.619-.39-1.247-.609-1.884-.657a3.45 3.45 0 0 0-1.769.374 3.682 3.682 0 0 0-1.351 1.298ZM134.814 139.885c-.557.529-1.147.884-1.772 1.063a3.063 3.063 0 0 1-1.909-.023c-.657-.204-1.299-.636-1.928-1.297l-3.782-3.979.926-.88 3.696 3.887c.686.722 1.385 1.092 2.098 1.11.712.036 1.394-.257 2.047-.877.487-.463.818-.968.993-1.515.175-.53.185-1.077.029-1.642-.155-.547-.481-1.081-.977-1.603l-3.423-3.601.926-.88 6.511 6.849-.887.843-1.786-1.878.478.215a3.39 3.39 0 0 1 .06 2.154c-.206.741-.639 1.426-1.3 2.054ZM119.632 139.736c.758-.507 1.555-.793 2.39-.861a4.685 4.685 0 0 1 2.372.473c.756.376 1.394.953 1.914 1.731.526.789.815 1.599.865 2.431a4.523 4.523 0 0 1-.483 2.356c-.372.739-.942 1.365-1.711 1.878-.778.52-1.58.81-2.406.871a4.376 4.376 0 0 1-2.361-.458c-.75-.366-1.387-.943-1.914-1.731-.52-.779-.808-1.589-.865-2.431a4.497 4.497 0 0 1 .472-2.371c.383-.746.958-1.375 1.727-1.888Zm.629.943c-.569.379-.989.841-1.262 1.383a3.31 3.31 0 0 0-.313 1.768c.054.642.284 1.267.69 1.876.413.619.903 1.071 1.469 1.357a3.177 3.177 0 0 0 1.742.373c.613-.033 1.199-.237 1.757-.61.559-.373.972-.836 1.238-1.388.272-.543.385-1.13.338-1.763-.047-.632-.277-1.257-.69-1.876-.407-.609-.896-1.061-1.469-1.357a3.436 3.436 0 0 0-1.768-.378 3.534 3.534 0 0 0-1.732.615ZM112.033 144.379l6.909 7.367-1.13.468-6.349-6.859.516-.213.278 9.373-1.014.42-6.399-6.838.516-.214.311 9.359-1.081.448-.307-10.101 1.114-.462 6.082 6.404-.349.145-.211-8.835 1.114-.462ZM92.847 150.134a7.427 7.427 0 0 1 2.238-.003c.721.124 1.303.324 1.743.598l-.422 1.082c-.422-.229-.946-.407-1.57-.533a5.82 5.82 0 0 0-1.915-.027c-.89.131-1.512.362-1.863.693-.35.342-.49.745-.423 1.208.051.345.203.595.457.752.243.17.55.276.92.319.372.054.783.085 1.233.091.45.007.901.025 1.354.055.442.032.854.111 1.236.237.384.137.713.349.986.637.26.289.43.7.51 1.235.074.51 0 .988-.226 1.434-.226.445-.595.821-1.108 1.127-.522.32-1.182.538-1.977.656a6.917 6.917 0 0 1-1.853.018c-.628-.065-1.158-.199-1.588-.403l.403-1.096c.457.224.932.36 1.424.408.494.061.979.056 1.454-.014.843-.124 1.444-.364 1.804-.72.35-.343.491-.74.425-1.191-.053-.356-.2-.619-.444-.79a2.486 2.486 0 0 0-.944-.352 10.417 10.417 0 0 0-1.232-.091c-.45-.007-.896-.032-1.34-.076a5.11 5.11 0 0 1-1.253-.233 2.049 2.049 0 0 1-.98-.602c-.271-.275-.444-.668-.52-1.179-.08-.546.004-1.044.253-1.493.24-.435.633-.809 1.182-1.12.538-.298 1.217-.507 2.036-.627ZM82.194 160.489c-.768-.006-1.439-.161-2.013-.465a3.058 3.058 0 0 1-1.357-1.343c-.331-.602-.494-1.36-.487-2.272l.043-5.489 1.278.009-.042 5.364c-.007.996.239 1.748.739 2.256.488.52 1.182.783 2.082.79.672.005 1.26-.128 1.767-.4.494-.26.881-.648 1.161-1.161.268-.502.405-1.113.41-1.833l.038-4.968 1.278.01-.103 13.355-1.278-.01.05-6.497.249.488a3.387 3.387 0 0 1-1.453 1.59c-.662.391-1.45.583-2.362.576ZM71.378 149.841c.898.164 1.67.512 2.316 1.045a4.676 4.676 0 0 1 1.375 1.99c.281.795.338 1.653.17 2.574-.171.933-.528 1.715-1.07 2.348a4.538 4.538 0 0 1-1.987 1.357c-.782.272-1.627.325-2.536.159-.92-.169-1.698-.518-2.333-1.049a4.372 4.372 0 0 1-1.378-1.972c-.284-.784-.34-1.642-.17-2.574.169-.921.525-1.704 1.07-2.348a4.505 4.505 0 0 1 1.99-1.375c.793-.27 1.644-.321 2.553-.155Zm-.204 1.115c-.672-.123-1.296-.084-1.869.116a3.31 3.31 0 0 0-1.455 1.051c-.408.499-.678 1.109-.81 1.829-.134.731-.097 1.397.111 1.996a3.19 3.19 0 0 0 .992 1.481c.463.401 1.025.663 1.686.784.661.12 1.28.075 1.855-.137a3.307 3.307 0 0 0 1.47-1.031c.406-.487.676-1.096.81-1.828.131-.72.094-1.385-.111-1.996a3.444 3.444 0 0 0-1.006-1.502 3.547 3.547 0 0 0-1.672-.763ZM59.882 146.687c.765.284 1.392.715 1.882 1.293.485.59.79 1.285.915 2.087.11.808-.015 1.696-.374 2.664-.36.967-.842 1.716-1.448 2.247-.61.541-1.29.871-2.038.991-.748.119-1.51.035-2.287-.253-.844-.313-1.527-.784-2.048-1.413a4.246 4.246 0 0 1-.998-2.175c-.132-.816-.034-1.669.296-2.558.334-.9.818-1.617 1.45-2.15a4.41 4.41 0 0 1 2.175-.998c.806-.136 1.63-.048 2.475.265Zm5.757-1.493-4.502 12.134-1.148-.426.99-2.666.775-1.729.495-1.851 2.191-5.907 1.199.445Zm-6.067 2.588c-.63-.234-1.245-.302-1.845-.205a3.442 3.442 0 0 0-1.632.777c-.488.421-.86.974-1.115 1.66-.254.687-.331 1.343-.23 1.969.1.626.343 1.177.73 1.653.386.476.895.831 1.525 1.065.63.233 1.252.298 1.867.193a3.443 3.443 0 0 0 1.632-.777c.474-.413.837-.963 1.092-1.649.255-.686.34-1.346.254-1.979a3.439 3.439 0 0 0-.73-1.653 3.673 3.673 0 0 0-1.548-1.054ZM39.928 146.989c-.631-.438-1.098-.945-1.4-1.52a3.055 3.055 0 0 1-.364-1.874c.067-.684.36-1.401.88-2.15l3.132-4.509 1.05.729-3.06 4.405c-.568.818-.79 1.578-.663 2.279.11.705.535 1.314 1.274 1.827.552.383 1.114.605 1.685.666a2.781 2.781 0 0 0 1.614-.304c.504-.263.962-.691 1.373-1.282l2.833-4.081 1.05.729-5.39 7.762-1.006-.698 1.479-2.129-.115.512a3.39 3.39 0 0 1-2.096.495c-.769-.051-1.527-.337-2.276-.857ZM37.014 132.119c.65.64 1.092 1.362 1.327 2.166.218.805.224 1.611.018 2.418-.215.816-.65 1.558-1.308 2.224-.665.676-1.4 1.122-2.205 1.34a4.537 4.537 0 0 1-2.406.005c-.799-.215-1.528-.647-2.186-1.295-.667-.657-1.113-1.384-1.34-2.18a4.371 4.371 0 0 1-.03-2.405c.207-.807.642-1.549 1.308-2.224.657-.666 1.392-1.113 2.205-1.34a4.502 4.502 0 0 1 2.419-.017c.807.223 1.54.659 2.198 1.308Zm-.796.807c-.487-.48-1.024-.798-1.61-.955a3.3 3.3 0 0 0-1.795.051c-.618.182-1.184.534-1.698 1.056-.522.53-.866 1.101-1.031 1.713a3.184 3.184 0 0 0-.013 1.782c.157.592.475 1.125.954 1.596.479.472 1.015.782 1.61.93a3.309 3.309 0 0 0 1.795-.025c.61-.174 1.176-.526 1.698-1.056.514-.522.858-1.093 1.032-1.713.165-.612.169-1.215.012-1.808a3.542 3.542 0 0 0-.954-1.571ZM30.942 125.662l-5.79 8.275-.691-1.01 5.408-7.622.315.461-9.116 2.198-.62-.907 5.378-7.665.315.46-9.096 2.228-.66-.966 9.823-2.376.68.996-5.018 7.267-.213-.312 8.604-2.022.68.995ZM21.352 108.085a7.42 7.42 0 0 1 .466 2.188c.028.732-.046 1.342-.223 1.83l-1.146-.19c.137-.46.202-1.009.196-1.646a5.83 5.83 0 0 0-.37-1.879c-.314-.843-.669-1.403-1.065-1.678-.408-.271-.831-.326-1.27-.163-.326.121-.54.322-.64.602-.117.274-.157.596-.122.967.024.375.08.783.166 1.225.087.441.163.886.227 1.336.06.438.07.858.025 1.258a2.502 2.502 0 0 1-.418 1.096c-.229.315-.597.567-1.103.754-.484.18-.967.205-1.45.077-.482-.128-.927-.411-1.332-.849-.421-.446-.772-1.045-1.052-1.799a6.913 6.913 0 0 1-.402-1.809c-.066-.628-.045-1.174.065-1.637l1.156.167a4.15 4.15 0 0 0-.104 1.478c.043.496.148.969.315 1.419.296.799.656 1.338 1.08 1.616.407.271.825.327 1.252.169.338-.126.565-.325.68-.598.113-.285.162-.617.15-.996a10.543 10.543 0 0 0-.167-1.225 15.894 15.894 0 0 1-.204-1.326 5.09 5.09 0 0 1-.031-1.274c.028-.408.157-.769.385-1.084.213-.322.562-.573 1.046-.753a2.307 2.307 0 0 1 1.513-.062c.475.144.922.452 1.34.924.403.465.749 1.085 1.037 1.862ZM9.07 100.022c-.152-.752-.138-1.44.041-2.065a3.057 3.057 0 0 1 1.034-1.605c.521-.449 1.229-.763 2.123-.945l5.38-1.09.254 1.253-5.257 1.065c-.976.198-1.661.594-2.055 1.188-.408.584-.523 1.318-.344 2.2.134.658.386 1.207.756 1.646.357.43.815.729 1.376.897.546.159 1.172.167 1.878.024l4.869-.987.254 1.253-13.09 2.652-.254-1.253 6.368-1.29-.426.344a3.395 3.395 0 0 1-1.856-1.094c-.52-.568-.87-1.299-1.05-2.193ZM17.255 87.258c.024.912-.157 1.74-.545 2.482a4.674 4.674 0 0 1-1.664 1.756c-.72.44-1.548.672-2.484.697-.947.026-1.787-.162-2.518-.562a4.538 4.538 0 0 1-1.737-1.664c-.428-.709-.654-1.525-.679-2.448-.025-.936.157-1.77.545-2.5a4.374 4.374 0 0 1 1.645-1.755c.709-.44 1.537-.672 2.484-.697.936-.026 1.775.162 2.518.562a4.5 4.5 0 0 1 1.756 1.663c.427.72.654 1.543.679 2.466Zm-1.134.031c-.018-.684-.185-1.285-.499-1.805a3.31 3.31 0 0 0-1.329-1.207c-.572-.296-1.224-.435-1.956-.415-.743.02-1.387.194-1.93.52-.544.315-.959.74-1.244 1.276-.298.537-.438 1.14-.42 1.813.019.671.19 1.267.517 1.786.314.52.751.928 1.311 1.225.56.297 1.213.436 1.956.415.732-.02 1.376-.193 1.931-.52a3.44 3.44 0 0 0 1.261-1.294c.286-.536.42-1.134.402-1.794ZM17.95 75.266c-.12.807-.411 1.51-.875 2.11a4.25 4.25 0 0 1-1.852 1.328c-.769.275-1.664.337-2.684.187-1.021-.15-1.854-.467-2.498-.95-.657-.485-1.12-1.08-1.392-1.788-.272-.707-.347-1.47-.226-2.289.131-.89.45-1.656.957-2.297a4.254 4.254 0 0 1 1.921-1.427c.772-.3 1.627-.38 2.565-.242.95.14 1.751.464 2.404.973a4.404 4.404 0 0 1 1.427 1.92c.3.76.384 1.585.253 2.475Zm2.653 5.321L7.8 78.703l.179-1.211 2.814.414 1.851.4 1.914.1 6.233.917-.187 1.264Zm-3.788-5.397c.098-.665.037-1.28-.182-1.846a3.439 3.439 0 0 0-1.098-1.435c-.513-.391-1.131-.64-1.855-.746-.725-.107-1.383-.046-1.974.182-.592.228-1.08.581-1.466 1.058-.386.477-.628 1.048-.726 1.712a3.567 3.567 0 0 0 .197 1.867 3.44 3.44 0 0 0 1.098 1.435c.503.377 1.116.62 1.84.726.724.106 1.387.052 1.989-.162a3.443 3.443 0 0 0 1.466-1.058 3.68 3.68 0 0 0 .711-1.733ZM13.556 55.651c.3-.707.699-1.267 1.2-1.68a3.057 3.057 0 0 1 1.76-.742c.683-.076 1.445.064 2.285.42l5.056 2.138-.498 1.177-4.94-2.09c-.917-.388-1.706-.448-2.367-.18-.667.252-1.176.793-1.526 1.622-.262.619-.364 1.214-.306 1.786.051.556.26 1.061.628 1.516.362.44.874.8 1.537 1.08l4.576 1.935-.498 1.177-8.704-3.68.477-1.128 2.387 1.01-.524-.007a3.39 3.39 0 0 1-.915-1.95c-.107-.763.017-1.563.372-2.404ZM27.505 49.76c-.495.765-1.113 1.344-1.853 1.738a4.675 4.675 0 0 1-2.365.507c-.842-.045-1.657-.321-2.443-.83-.796-.514-1.382-1.143-1.759-1.887a4.538 4.538 0 0 1-.492-2.354c.048-.826.323-1.627.825-2.403.508-.786 1.13-1.37 1.863-1.754a4.375 4.375 0 0 1 2.35-.517c.832.038 1.646.315 2.443.83.786.507 1.372 1.137 1.759 1.887a4.5 4.5 0 0 1 .507 2.364c-.055.836-.333 1.642-.835 2.418Zm-.952-.616c.371-.575.574-1.165.609-1.771a3.309 3.309 0 0 0-.414-1.747c-.304-.568-.764-1.051-1.378-1.448-.625-.404-1.254-.625-1.887-.663a3.185 3.185 0 0 0-1.748.35c-.548.273-1.005.692-1.37 1.256-.365.565-.56 1.153-.584 1.766-.035.606.094 1.19.388 1.752.295.562.754 1.044 1.379 1.448.615.398 1.243.619 1.887.663a3.442 3.442 0 0 0 1.772-.355c.539-.28.987-.697 1.346-1.252ZM32.563 42.507l-9.277-3.994.85-.881 8.56 3.752-.388.402-3.999-8.482.762-.79 8.598 3.713-.388.402-4.023-8.455.812-.842 4.316 9.137-.837.868-8.134-3.442.262-.272L33.4 41.64l-.837.868ZM47.658 29.606a7.429 7.429 0 0 1-2.045.908c-.71.178-1.322.231-1.837.158l-.05-1.16c.478.04 1.028-.01 1.651-.148a5.83 5.83 0 0 0 1.762-.75c.76-.48 1.235-.942 1.423-1.387.181-.455.147-.88-.103-1.276-.186-.294-.426-.462-.722-.503-.291-.057-.615-.03-.97.081-.363.1-.75.24-1.165.415-.413.176-.834.342-1.26.498-.417.15-.826.244-1.226.284a2.499 2.499 0 0 1-1.16-.184c-.355-.159-.677-.466-.965-.923a2.345 2.345 0 0 1-.374-1.402c.025-.5.21-.992.556-1.48.349-.504.863-.97 1.543-1.4a6.908 6.908 0 0 1 1.687-.766c.601-.195 1.14-.286 1.615-.274l.076 1.165a4.153 4.153 0 0 0-1.468.203 5.408 5.408 0 0 0-1.324.601c-.72.455-1.173.918-1.358 1.39-.181.454-.15.875.093 1.26.193.305.434.485.726.543.302.05.637.03 1.005-.06.372-.107.76-.246 1.164-.415.414-.176.833-.334 1.256-.473.426-.156.84-.254 1.24-.294a2.047 2.047 0 0 1 1.14.154c.36.142.677.431.953.867.294.467.418.956.372 1.468-.042.495-.251.996-.627 1.502-.371.49-.907.956-1.608 1.398ZM53.203 15.804c.705-.305 1.382-.433 2.03-.386a3.057 3.057 0 0 1 1.784.68c.546.418 1 1.046 1.361 1.883l2.177 5.04-1.173.506-2.127-4.924c-.395-.914-.924-1.503-1.586-1.766-.656-.279-1.398-.24-2.224.117-.617.266-1.102.626-1.455 1.08a2.779 2.779 0 0 0-.594 1.53c-.043.567.079 1.182.364 1.843l1.97 4.56-1.173.507-5.296-12.261 1.174-.507 2.576 5.966-.424-.347a3.39 3.39 0 0 1 .687-2.041c.449-.625 1.092-1.119 1.93-1.48ZM67.182 21.228c-.887.212-1.734.204-2.541-.023a4.675 4.675 0 0 1-2.06-1.266c-.579-.615-.977-1.377-1.194-2.288-.22-.922-.21-1.782.032-2.58a4.538 4.538 0 0 1 1.27-2.042c.606-.564 1.358-.954 2.257-1.168.91-.217 1.764-.21 2.558.019a4.374 4.374 0 0 1 2.057 1.249c.575.603.973 1.365 1.193 2.287.218.91.207 1.77-.032 2.58a4.5 4.5 0 0 1-1.266 2.06c-.617.567-1.376.958-2.274 1.172Zm-.264-1.103c.666-.159 1.22-.445 1.664-.86a3.31 3.31 0 0 0 .908-1.549c.172-.62.174-1.287.004-1.999-.173-.724-.475-1.318-.907-1.782a3.184 3.184 0 0 0-1.505-.955c-.586-.181-1.206-.194-1.86-.038-.653.156-1.2.447-1.641.873a3.308 3.308 0 0 0-.93 1.536c-.175.61-.176 1.276-.003 2 .17.711.472 1.306.906 1.782.432.464.94.787 1.527.968.583.17 1.195.177 1.837.024ZM78.808 19.447c-.814.05-1.562-.09-2.244-.42a4.247 4.247 0 0 1-1.682-1.537c-.428-.695-.673-1.558-.737-2.588-.064-1.03.074-1.91.414-2.64.339-.742.826-1.32 1.462-1.732.635-.412 1.367-.643 2.193-.694.898-.056 1.713.098 2.445.462.743.35 1.341.879 1.793 1.584.452.694.707 1.514.766 2.46.059.958-.093 1.809-.456 2.553a4.409 4.409 0 0 1-1.584 1.793c-.682.45-1.471.704-2.37.76Zm-4.659 3.697-.798-12.917 1.222-.076.175 2.839-.01 1.894.298 1.893.389 6.288-1.276.079Zm4.5-4.823c.67-.041 1.26-.228 1.768-.56a3.44 3.44 0 0 0 1.178-1.371c.276-.583.392-1.239.347-1.97-.045-.73-.24-1.361-.586-1.893a3.44 3.44 0 0 0-1.337-1.216c-.547-.279-1.155-.397-1.826-.356a3.567 3.567 0 0 0-1.786.58 3.44 3.44 0 0 0-1.177 1.37c-.266.57-.376 1.22-.33 1.95.045.731.234 1.369.569 1.913a3.44 3.44 0 0 0 1.337 1.216 3.68 3.68 0 0 0 1.842.337ZM97.528 11.084c.754.146 1.385.422 1.893.827.522.395.885.918 1.088 1.568.215.654.236 1.428.061 2.323l-1.049 5.389-1.254-.245 1.025-5.265c.19-.977.086-1.762-.312-2.353-.385-.6-1.018-.986-1.902-1.158-.66-.129-1.263-.106-1.81.069a2.778 2.778 0 0 0-1.355.928c-.355.444-.602 1.02-.74 1.727l-.949 4.876-1.254-.244 1.806-9.276 1.201.234-.495 2.544-.102-.515a3.391 3.391 0 0 1 1.72-1.297c.724-.263 1.533-.307 2.428-.132ZM106.118 23.486c-.851-.327-1.546-.812-2.083-1.455a4.67 4.67 0 0 1-.984-2.209c-.129-.834-.027-1.688.309-2.562.339-.885.834-1.588 1.485-2.11a4.538 4.538 0 0 1 2.202-.967c.819-.123 1.659-.018 2.522.313.874.335 1.574.822 2.1 1.46.537.644.867 1.375.99 2.193.134.823.031 1.677-.309 2.562-.335.873-.83 1.577-1.484 2.11a4.503 4.503 0 0 1-2.21.983c-.829.12-1.675.013-2.538-.318Zm.406-1.059c.639.245 1.258.322 1.859.232a3.31 3.31 0 0 0 1.624-.765c.493-.415.871-.964 1.134-1.648.266-.694.353-1.355.259-1.982a3.185 3.185 0 0 0-.701-1.638c-.381-.48-.886-.841-1.513-1.082-.628-.24-1.244-.31-1.848-.208a3.31 3.31 0 0 0-1.635.742c-.489.403-.867.952-1.133 1.647-.263.683-.349 1.344-.26 1.982.093.627.331 1.181.712 1.662.385.469.886.822 1.502 1.058ZM114.465 27.046l2.03-9.893 1.035.653-1.939 9.142-.472-.298 7.496-5.636.928.586-1.893 9.17-.472-.297 7.465-5.655.989.624-8.073 6.08-1.02-.643 1.721-8.663.32.202-7.095 5.271-1.02-.643ZM130.179 39.244a7.4 7.4 0 0 1-1.304-1.818c-.319-.66-.495-1.248-.528-1.766l1.125-.285c.06.476.22 1.005.481 1.587a5.815 5.815 0 0 0 1.091 1.572c.625.648 1.174 1.019 1.648 1.112.482.085.892-.034 1.229-.36.25-.24.365-.51.345-.808-.003-.297-.095-.608-.275-.934a9.705 9.705 0 0 0-.643-1.055c-.257-.37-.504-.748-.744-1.134a5.153 5.153 0 0 1-.526-1.142 2.494 2.494 0 0 1-.055-1.172c.083-.38.319-.758.708-1.133a2.344 2.344 0 0 1 1.297-.651c.494-.076 1.014.005 1.562.244.564.24 1.125.649 1.683 1.228.425.44.79.939 1.094 1.496.312.549.511 1.057.596 1.526l-1.126.31a4.165 4.165 0 0 0-.497-1.396 5.41 5.41 0 0 0-.857-1.174c-.591-.614-1.137-.963-1.636-1.048-.482-.085-.887.03-1.216.347-.259.25-.387.523-.384.82.012.306.099.63.263.972.18.343.394.695.642 1.056.257.37.496.747.718 1.133.239.386.419.771.539 1.155.138.385.165.767.081 1.148-.066.38-.285.75-.656 1.108-.398.383-.851.604-1.362.662-.493.06-1.026-.044-1.598-.309-.556-.264-1.121-.695-1.695-1.29ZM144.718 41.738c.443.627.708 1.263.794 1.906a3.05 3.05 0 0 1-.3 1.886c-.296.62-.817 1.193-1.563 1.719l-4.486 3.164-.737-1.044 4.384-3.092c.814-.574 1.281-1.212 1.403-1.914.138-.7-.052-1.417-.571-2.153-.388-.549-.839-.95-1.355-1.203-.5-.25-1.04-.338-1.621-.267-.564.075-1.14.32-1.728.735l-4.06 2.863-.737-1.044 10.915-7.697.737 1.044-5.311 3.745.252-.486a3.394 3.394 0 0 1 2.14.253c.704.311 1.318.84 1.844 1.585ZM142.357 56.676c-.39-.825-.556-1.655-.5-2.491.072-.83.344-1.59.816-2.277.483-.692 1.147-1.238 1.994-1.637.857-.405 1.701-.571 2.531-.499a4.542 4.542 0 0 1 2.261.824c.676.477 1.211 1.133 1.606 1.969.4.846.569 1.682.507 2.507a4.369 4.369 0 0 1-.8 2.269c-.471.687-1.136 1.233-1.993 1.637-.847.4-1.69.566-2.532.499a4.5 4.5 0 0 1-2.276-.816c-.682-.488-1.22-1.15-1.614-1.985Zm1.025-.484c.292.618.687 1.102 1.183 1.452a3.311 3.311 0 0 0 1.703.57c.643.04 1.296-.095 1.957-.407.673-.318 1.193-.736 1.559-1.254a3.186 3.186 0 0 0 .625-1.668c.057-.61-.059-1.22-.346-1.828-.286-.607-.684-1.083-1.191-1.428a3.311 3.311 0 0 0-1.694-.593c-.632-.047-1.285.089-1.958.407-.662.312-1.181.73-1.558 1.253a3.443 3.443 0 0 0-.634 1.692 3.54 3.54 0 0 0 .354 1.804ZM146.468 67.696c-.216-.787-.233-1.548-.049-2.283a4.24 4.24 0 0 1 1.159-1.961c.592-.562 1.386-.979 2.381-1.253.995-.273 1.885-.319 2.67-.136.796.179 1.461.537 1.994 1.075.534.538.911 1.206 1.13 2.004.239.868.256 1.697.05 2.488a4.25 4.25 0 0 1-1.183 2.08c-.586.584-1.336 1.002-2.25 1.254-.925.254-1.789.28-2.592.078a4.409 4.409 0 0 1-2.08-1.183c-.581-.574-.991-1.295-1.23-2.163Zm-4.574-3.801 12.479-3.432.324 1.18-2.742.754-1.856.38-1.792.68-6.074 1.67-.339-1.232Zm5.644 3.413c.178.648.482 1.187.911 1.617.441.426.969.716 1.584.87.626.152 1.293.13 1.998-.064.706-.194 1.284-.514 1.733-.962.45-.447.755-.966.916-1.558.16-.592.152-1.212-.027-1.86a3.566 3.566 0 0 0-.933-1.629 3.443 3.443 0 0 0-1.584-.87c-.612-.143-1.27-.118-1.976.076s-1.291.51-1.755.95c-.45.447-.755.966-.916 1.558-.146.6-.13 1.224.049 1.872Z"/></symbol><svg id="icon-ellipse" viewBox="0 0 64 64" xmlns="http://www.w3.org/2000/svg"><circle cx="32" cy="32" r="31.5" stroke="#000"/></svg></defs></svg>