<svg aria-hidden="true" style="width:0;height:0;position:absolute;overflow:hidden" xmlns="http://www.w3.org/2000/svg"><defs><symbol id="icon-icon-menu" viewBox="0 0 32 32"><path fill="none" stroke="#fff" style="stroke:var(--color1,#fff)" stroke-linejoin="round" stroke-linecap="round" stroke-width="2.667" d="M24 8 8 24M8 8l16 16"/></symbol><symbol id="icon-down-arrow-right" viewBox="0 0 32 32"><path fill="#fff" style="fill:var(--color1,#fff)" d="M0 0h32v32H0V0z"/><path fill="#fff" style="fill:var(--color2,#fff)" d="M-110.08-1505.28h204.8V383.36h-204.8v-1888.64z"/><path style="fill:var(--color3,#000)" d="m21.674 14.79 1.203.818-22.876.001v.64l22.733-.001-1.133.651.319.555 2.608-1.498-2.493-1.695-.36.529z"/></symbol><symbol id="icon-down-arrow-left" viewBox="0 0 32 32"><path fill="#fff" style="fill:var(--color1,#fff)" d="M0 0h32v32H0V0z"/><path fill="#fff" style="fill:var(--color2,#fff)" d="M-62.08-1505.28h204.8V383.36h-204.8v-1888.64z"/><path style="fill:var(--color3,#000)" d="M7.703 17.067 6.5 16.249l22.876-.001v-.64l-22.733.001 1.133-.651-.319-.555-2.608 1.498 2.493 1.695.36-.529z"/></symbol><symbol id="icon-close" viewBox="0 0 32 32"><path d="M29.262.055c-.661.112-.391-.139-7.063 6.526L16 12.773 3.893.668 2.282 2.282.668 3.893 12.773 16l-6.194 6.199C2.332 26.45.348 28.471.273 28.624c-.455.914-.32 1.918.359 2.642.271.296.619.516 1.013.629l.016.004c.539.167 1.161.105 1.717-.171.153-.075 2.174-2.059 6.425-6.306l6.199-6.194 12.107 12.105 1.611-1.614 1.614-1.611-12.105-12.107 6.194-6.199c4.247-4.251 6.231-6.272 6.306-6.425.48-.962.295-2.039-.471-2.754-.537-.503-1.221-.695-1.995-.567z"/></symbol><symbol id="icon-Error-logo" viewBox="0 0 32 32"><path d="M0 16C0 7.162 7.162 0 16 0s16 7.162 16 16c0 8.837-7.163 16-16 16S0 24.837 0 16zm10.938-2.994 2.944 2.938-2.944 2.994c-.581.588-.581 1.538 0 2.069.588.637 1.537.637 2.069 0l2.938-2.888 2.994 2.888c.588.637 1.538.637 2.069 0 .637-.531.637-1.481 0-2.069l-2.888-2.994 2.888-2.938c.637-.531.637-1.481 0-2.069-.531-.581-1.481-.581-2.069 0l-2.994 2.944-2.938-2.944c-.531-.581-1.481-.581-2.069 0-.581.588-.581 1.537 0 2.069z"/></symbol><symbol id="icon-correct-logo" viewBox="0 0 32 32"><path d="M0 16C0 7.162 7.162 0 16 0s16 7.162 16 16c0 8.837-7.163 16-16 16S0 24.837 0 16zm23.237-2.762c.681-.681.681-1.794 0-2.475s-1.794-.681-2.475 0l-6.763 6.762-2.763-2.762c-.681-.681-1.794-.681-2.475 0s-.681 1.794 0 2.475l4 4a1.755 1.755 0 0 0 2.475 0l8-8z"/></symbol><symbol id="icon-facebook" viewBox="0 0 28 28"><path d="M21 2.333h-3.5a5.833 5.833 0 0 0-5.833 5.834v3.5h-3.5v4.666h3.5v9.334h4.667v-9.334h3.5L21 11.667h-4.666v-3.5A1.167 1.167 0 0 1 17.5 7H21V2.333Z" stroke="#fff" stroke-width="2" stroke-linecap="round" stroke-linejoin="round"/></symbol><symbol id="icon-instagram" viewBox="0 0 28 28"><path d="M19.833 2.333H8.166a5.833 5.833 0 0 0-5.833 5.834v11.666a5.833 5.833 0 0 0 5.833 5.834h11.667a5.833 5.833 0 0 0 5.833-5.834V8.167a5.833 5.833 0 0 0-5.833-5.834Z" stroke="#fff" stroke-width="2" stroke-linecap="round" stroke-linejoin="round"/><path d="M18.667 13.265a4.667 4.667 0 1 1-9.234 1.369 4.667 4.667 0 0 1 9.234-1.369ZM20.417 7.583h.011" stroke="#fff" stroke-width="2" stroke-linecap="round" stroke-linejoin="round"/></symbol></defs></svg>