<svg xmlns="http://www.w3.org/2000/svg" aria-hidden="true" style="position:absolute;width:0;height:0;overflow:hidden">
<defs>
<symbol id="facebook" viewBox="0 0 28 28">
    <path d="M21.0003 2.33334H17.5003C15.9532 2.33334 14.4695 2.94792 13.3755 4.04188C12.2816 5.13584 11.667 6.61957 11.667 8.16667V11.6667H8.16699V16.3333H11.667V25.6667H16.3337V16.3333H19.8337L21.0003 11.6667H16.3337V8.16667C16.3337 7.85725 16.4566 7.5605 16.6754 7.34171C16.8942 7.12292 17.1909 7 17.5003 7H21.0003V2.33334Z" stroke="white" stroke-width="2" stroke-linecap="round" stroke-linejoin="round"/>
</symbol>
<symbol id="instagram" viewBox="0 0 28 28">
    <path d="M19.833 2.33334H8.16634C4.94468 2.33334 2.33301 4.94501 2.33301 8.16667V19.8333C2.33301 23.055 4.94468 25.6667 8.16634 25.6667H19.833C23.0547 25.6667 25.6663 23.055 25.6663 19.8333V8.16667C25.6663 4.94501 23.0547 2.33334 19.833 2.33334Z" stroke="white" stroke-width="2" stroke-linecap="round" stroke-linejoin="round"/>
    <path d="M18.6667 13.265C18.8106 14.236 18.6448 15.2276 18.1927 16.0989C17.7406 16.9701 17.0253 17.6766 16.1485 18.118C15.2718 18.5593 14.2782 18.7129 13.3091 18.5569C12.34 18.401 11.4447 17.9434 10.7506 17.2494C10.0566 16.5553 9.599 15.66 9.44306 14.6909C9.28712 13.7218 9.44073 12.7282 9.88203 11.8514C10.3233 10.9747 11.0299 10.2594 11.9011 9.80728C12.7724 9.3552 13.764 9.18935 14.735 9.33333C15.7254 9.4802 16.6423 9.94171 17.3503 10.6497C18.0583 11.3577 18.5198 12.2746 18.6667 13.265Z" stroke="white" stroke-width="2" stroke-linecap="round" stroke-linejoin="round"/>
    <path d="M20.417 7.58334H20.4281" stroke="white" stroke-width="2" stroke-linecap="round" stroke-linejoin="round"/>
</symbol>
<symbol id="icon-Logo" viewBox="0 0 41 32">
    <path d="M16.241 31.144v-4.916l-.219-.922v-8.384c0-1.785-.527-3.16-1.58-4.126-1.024-.995-2.575-1.492-4.653-1.492-1.375 0-2.721.234-4.038.702-1.317.439-2.429 1.039-3.336 1.8L.659 10.645c1.2-.966 2.634-1.697 4.302-2.195a17.807 17.807 0 0 1 5.311-.79c3.19 0 5.648.775 7.374 2.326s2.59 3.921 2.59 7.111v14.047h-3.994zm-7.637.263c-1.727 0-3.248-.293-4.565-.878-1.288-.585-2.283-1.39-2.985-2.414C.352 27.062 0 25.876 0 24.559c0-1.258.293-2.4.878-3.424.615-1.024 1.595-1.844 2.941-2.458 1.375-.615 3.219-.922 5.531-.922h7.375v3.029H9.526c-2.107 0-3.526.351-4.258 1.053s-1.097 1.551-1.097 2.546c0 1.141.454 2.063 1.361 2.765.907.673 2.166 1.01 3.775 1.01 1.58 0 2.956-.351 4.126-1.053 1.2-.702 2.063-1.727 2.59-3.073l.834 2.897c-.556 1.375-1.536 2.473-2.941 3.292-1.405.79-3.175 1.185-5.311 1.185z"/>
    <path d="M29.718 31.407c-2.487 0-4.682-.512-6.584-1.536-1.873-1.024-3.336-2.429-4.39-4.214-1.024-1.785-1.536-3.834-1.536-6.145s.497-4.36 1.492-6.145c1.024-1.785 2.414-3.175 4.17-4.17 1.785-1.024 3.79-1.536 6.014-1.536 2.253 0 4.243.498 5.97 1.492s3.073 2.4 4.038 4.214c.995 1.785 1.492 3.878 1.492 6.277 0 .176-.015.38-.044.614 0 .234-.015.454-.044.659H20.499v-3.029h17.602l-1.712 1.053c.029-1.492-.278-2.824-.922-3.995s-1.536-2.078-2.678-2.722c-1.112-.673-2.414-1.01-3.907-1.01-1.463 0-2.765.337-3.907 1.01-1.141.644-2.034 1.566-2.678 2.765-.644 1.171-.966 2.517-.966 4.038v.702c0 1.551.351 2.941 1.053 4.17.732 1.2 1.741 2.136 3.029 2.809s2.765 1.01 4.433 1.01c1.375 0 2.619-.234 3.731-.702a8.183 8.183 0 0 0 2.985-2.107l2.327 2.721c-1.053 1.229-2.37 2.166-3.951 2.809-1.551.644-3.292.966-5.224.966zM37.311 3.292H21.947V0h15.364v3.292z"/>
</symbol>
<symbol id="icon-tel" viewBox="0 0 32 32">
    <path d="m29.276 6.061-3.873-3.869a2.5 2.5 0 0 0-3.55 0l-4.171 4.163a2.509 2.509 0 0 0 0 3.556l3.258 3.261a14.754 14.754 0 0 1-3.142 4.629 14.78 14.78 0 0 1-4.625 3.149l-3.258-3.261a2.5 2.5 0 0 0-1.775-.738 2.482 2.482 0 0 0-1.775.738L2.19 21.852a2.509 2.509 0 0 0 0 3.556l3.869 3.869a4.355 4.355 0 0 0 3.062 1.269c.236 0 .465-.018.698-.058 4.814-.793 9.593-3.356 13.451-7.21 3.855-3.861 6.415-8.639 7.215-13.456a4.335 4.335 0 0 0-1.211-3.76zm-1.367 3.327c-.709 4.287-3.015 8.563-6.487 12.035S13.676 27.2 9.389 27.909a1.711 1.711 0 0 1-1.484-.48l-3.8-3.8 4.029-4.032 4.389 4.396.785-.291A17.504 17.504 0 0 0 23.697 13.31l.291-.785-4.393-4.389 4.029-4.032 3.8 3.8a1.7 1.7 0 0 1 .484 1.483z"/>
</symbol>
<symbol id="icon-nav-menu-button" viewBox="0 0 32 32">
    <path d="M4 5.333h24V8H4V5.333zm8 9.334h16v2.667H12v-2.667zM4 24h24v2.667H4V24z"/>
</symbol>
<symbol id="icon-icon-menu" viewBox="0 0 32 32">
    <path fill="none" stroke="#fff" style="stroke: var(--color1, #fff)" stroke-linejoin="round" stroke-linecap="round" stroke-miterlimit="4" stroke-width="2.6667" d="M24 8l-16 16M8 8l16 16"></path>
</symbol>
<symbol id="icon-tel" viewBox="0 0 32 32">
    <path d="m29.276 6.061-3.873-3.869a2.5 2.5 0 0 0-3.55 0l-4.171 4.163a2.509 2.509 0 0 0 0 3.556l3.258 3.261a14.754 14.754 0 0 1-3.142 4.629 14.78 14.78 0 0 1-4.625 3.149l-3.258-3.261a2.5 2.5 0 0 0-1.775-.738 2.482 2.482 0 0 0-1.775.738L2.19 21.852a2.509 2.509 0 0 0 0 3.556l3.869 3.869a4.355 4.355 0 0 0 3.062 1.269c.236 0 .465-.018.698-.058 4.814-.793 9.593-3.356 13.451-7.21 3.855-3.861 6.415-8.639 7.215-13.456a4.335 4.335 0 0 0-1.211-3.76zm-1.367 3.327c-.709 4.287-3.015 8.563-6.487 12.035S13.676 27.2 9.389 27.909a1.711 1.711 0 0 1-1.484-.48l-3.8-3.8 4.029-4.032 4.389 4.396.785-.291A17.504 17.504 0 0 0 23.697 13.31l.291-.785-4.393-4.389 4.029-4.032 3.8 3.8a1.7 1.7 0 0 1 .484 1.483z"/>
</symbol>
<symbol id="icon-nav-menu-button" viewBox="0 0 32 32">
    <path d="M4 5.333h24V8H4V5.333zm8 9.334h16v2.667H12v-2.667zM4 24h24v2.667H4V24z"/>
</symbol>
<symbol id="icon-icon-menu" viewBox="0 0 32 32">
    <path fill="none" stroke="#fff" style="stroke: var(--color1, #fff)" stroke-linejoin="round" stroke-linecap="round" stroke-miterlimit="4" stroke-width="2.6667" d="M24 8l-16 16M8 8l16 16"></path>
</symbol>
<symbol id="icon-down-arrow-right" viewBox="0 0 32 32">
    <path fill="#fff" style="fill: var(--color1, #fff)" d="M0 0h32v32h-32v-32z"></path>
    <path fill="#fff" style="fill: var(--color2, #fff)" d="M-110.080-1505.28h204.8v1888.64h-204.8v-1888.64z"></path>
    <path fill="#000" style="fill: var(--color3, #000)" d="M21.674 14.79l1.203 0.818-22.876 0.001v0.64l22.733-0.001-1.133 0.651 0.319 0.555 2.608-1.498-2.493-1.695-0.36 0.529z"></path>
</symbol>
<symbol id="icon-down-arrow-left" viewBox="0 0 32 32">
    <path fill="#fff" style="fill: var(--color1, #fff)" d="M0 0h32v32h-32v-32z"></path>
    <path fill="#fff" style="fill: var(--color2, #fff)" d="M-62.080-1505.28h204.8v1888.64h-204.8v-1888.64z"></path>
    <path fill="#000" style="fill: var(--color3, #000)" d="M7.703 17.067l-1.203-0.818 22.876-0.001v-0.64l-22.733 0.001 1.133-0.651-0.319-0.555-2.608 1.498 2.493 1.695 0.36-0.529z"></path>
</symbol>
<symbol id="icon-close" viewBox="0 0 32 32">
    <path d="M29.262 0.055c-0.661 0.112-0.391-0.139-7.063 6.526l-6.199 6.192-12.107-12.105-1.611 1.614-1.614 1.611 12.105 12.107-6.194 6.199c-4.247 4.251-6.231 6.272-6.306 6.425-0.455 0.914-0.32 1.918 0.359 2.642 0.271 0.296 0.619 0.516 1.013 0.629l0.016 0.004c0.539 0.167 1.161 0.105 1.717-0.171 0.153-0.075 2.174-2.059 6.425-6.306l6.199-6.194 12.107 12.105 1.611-1.614 1.614-1.611-12.105-12.107 6.194-6.199c4.247-4.251 6.231-6.272 6.306-6.425 0.48-0.962 0.295-2.039-0.471-2.754-0.537-0.503-1.221-0.695-1.995-0.567z"></path>
</symbol>
<symbol id="icon-Error-logo" viewBox="0 0 32 32">
    <path d="M0 16c0-8.838 7.162-16 16-16s16 7.162 16 16c0 8.837-7.163 16-16 16s-16-7.163-16-16zM10.938 13.006l2.944 2.938-2.944 2.994c-0.581 0.588-0.581 1.538 0 2.069 0.588 0.637 1.537 0.637 2.069 0l2.938-2.888 2.994 2.888c0.588 0.637 1.538 0.637 2.069 0 0.637-0.531 0.637-1.481 0-2.069l-2.888-2.994 2.888-2.938c0.637-0.531 0.637-1.481 0-2.069-0.531-0.581-1.481-0.581-2.069 0l-2.994 2.944-2.938-2.944c-0.531-0.581-1.481-0.581-2.069 0-0.581 0.588-0.581 1.537 0 2.069z"></path>
</symbol>
<symbol id="icon-correct-logo" viewBox="0 0 32 32">
    <path d="M0 16c0-8.838 7.162-16 16-16s16 7.162 16 16c0 8.837-7.163 16-16 16s-16-7.163-16-16zM23.237 13.238c0.681-0.681 0.681-1.794 0-2.475s-1.794-0.681-2.475 0l-6.763 6.762-2.763-2.762c-0.681-0.681-1.794-0.681-2.475 0s-0.681 1.794 0 2.475l4 4c0.681 0.681 1.794 0.681 2.475 0l8-8z"></path>
</symbol>
<symbol id="icon-thank-you-flower" viewBox="0 0 42 32">
    <path fill="#f58b3d" style="fill: var(--color1, #f58b3d)" opacity="0.25453134912100006" d="M39.13 25.599c0.542 3.691-12.608 6.099-23.927 4.419s-16.511-8.242-11.11-11.738c5.401-3.496 34.495 3.628 35.037 7.319z"></path>
    <path fill="#f58b3d" style="fill: var(--color1, #f58b3d)" d="M22.863 10.218c0.205-0.142 0.522-0.052 0.728 0.032 0.079 0.032 0.282 0.136 0.433 0.253-0.020-0.081-0.038-0.162-0.053-0.245-0.064-0.338-0.108-0.682-0.128-1.025-0.006-0.089 0.002-0.189 0.009-0.29v-0c0.002-0.034 0.005-0.069 0.007-0.103-0.008-0.008-0.014-0.019-0.016-0.034-0.001 0.006-0.001 0.011-0.002 0.015-0 0.006-0.001 0.009-0.002 0.010s-0.003-0.002-0.007-0.008c-0.001-0.002-0.003-0.005-0.005-0.007-0.152-0.207-0.28-0.441-0.298-0.698-0.015-0.218 0.182-0.63 0.46-0.344 0.125 0.127 0.092 1.022-0.095 1.077 0.050 0.296 0.113 0.592 0.192 0.884 0.012-0.002 0.024-0.002 0.036-0.001-0.001-0.073-0.001-0.152 0.002-0.179 0.028-0.235 0.244-0.711 0.587-0.619 0.263 0.071 0.102 0.364 0.012 0.492-0.144 0.206-0.308 0.296-0.514 0.403-0.004 0.044-0.035 0.070-0.073 0.079 0.139 0.472 0.32 0.932 0.558 1.367l0.006-0.028c0.030-0.132 0.066-0.286 0.088-0.318 0.117-0.169 0.375-0.376 0.613-0.276 0.5 0.21-0.043 0.815-0.469 0.881-0.018 0.022-0.036 0.040-0.056 0.050 0.083 0.131 0.171 0.26 0.266 0.385 0.142 0.188 0.295 0.376 0.454 0.562 0.005-0.146 0.068-0.471 0.086-0.506 0.109-0.212 0.424-0.431 0.679-0.28 0.287 0.17 0.027 0.491-0.137 0.637-0.067 0.060-0.399 0.278-0.516 0.279 0.386 0.44 0.813 0.872 1.246 1.289-0.036-0.187-0.083-0.7-0.078-0.757 0.027-0.294 0.239-0.765 0.658-0.65 0.406 0.111 0.226 0.6 0.087 0.833-0.084 0.141-0.201 0.284-0.341 0.383-0.025 0.018-0.058 0.032-0.091 0.047-0.040 0.017-0.080 0.035-0.105 0.058-0.023 0.021-0.030 0.044-0.037 0.067-0.007 0.025-0.015 0.049-0.041 0.070 0.234 0.224 0.47 0.444 0.703 0.657 0.11 0.101 0.222 0.2 0.334 0.297 0.062-0.023 0.15 0.007 0.145 0.087-0.001 0.012-0.004 0.022-0.008 0.031 0.085 0.072 0.172 0.144 0.258 0.216-0.002-0.021-0.001-0.050 0.003-0.090-0.062 0.081-0.060-0.037-0.058-0.127 0.001-0.032 0.001-0.060-0.001-0.075-0.009-0.058-0.021-0.115-0.033-0.172-0.025-0.122-0.050-0.243-0.049-0.369 0.003-0.267 0.188-0.715 0.579-0.556 0.359 0.146 0.229 0.542 0.093 0.79-0.086 0.157-0.203 0.297-0.326 0.431-0.022 0.024-0.046 0.056-0.070 0.089-0.036 0.048-0.071 0.095-0.097 0.112 0.334 0.272 0.675 0.537 1.017 0.801v0c0.153 0.118 0.306 0.237 0.458 0.356 0.007-0.026 0.012-0.052 0.017-0.076-0.009 0.010-0.022 0.014-0.039 0.013-0.004-0.020-0.011-0.047-0.018-0.079-0.094-0.39-0.38-1.58 0.395-1.349 0.568 0.169 0.167 1.205-0.257 1.567 0.257 0.202 0.512 0.407 0.761 0.618 0.18 0.153 0.355 0.311 0.523 0.474-0.087-0.211-0.169-0.485-0.115-0.702 0.078-0.317 0.445-0.616 0.803-0.436 0.446 0.226 0.103 0.534-0.219 0.823-0.165 0.148-0.323 0.29-0.369 0.414 0.534 0.535 0.99 1.13 1.295 1.807 0.331 0.737 0.639 1.726 0.469 2.55 0.031-0.362-0.103-0.817-0.197-1.137-0.013-0.044-0.025-0.084-0.036-0.122-0.142-0.496-0.343-0.978-0.608-1.429-0.425-0.723-0.987-1.336-1.635-1.893-0.148 0.047-0.308 0.134-0.441 0.206-0.081 0.044-0.153 0.083-0.204 0.103-0.248 0.098-0.724 0.237-0.882-0.070-0.155-0.302 0.241-0.471 0.487-0.539 0.238-0.065 0.452-0.057 0.673-0.004-0.343-0.277-0.695-0.546-1.046-0.814v-0c-0.065-0.049-0.129-0.099-0.194-0.148-0.089 0.067-0.188 0.163-0.293 0.266-0.333 0.325-0.727 0.71-1.078 0.396-0.531-0.475 0.485-0.958 0.917-0.92 0.053 0.005 0.105 0.015 0.155 0.029-0.441-0.341-0.876-0.69-1.287-1.062-0.074 0.012-0.191 0.111-0.332 0.23-0.317 0.267-0.753 0.634-1.082 0.345-0.237-0.209-0.156-0.534 0.073-0.72s0.564-0.186 0.848-0.124c0.123 0.027 0.236 0.079 0.341 0.142 0.005 0 0.009 0 0.013 0.001-0.404-0.371-0.811-0.75-1.203-1.142-0.007 0.002-0.014 0.004-0.021 0.006-0.024 0.026-0.063 0.036-0.1 0.030-0.020 0.006-0.041 0.013-0.062 0.019-0.31 0.098-0.709 0.223-1.018 0.169-0.228-0.040-0.434-0.208-0.241-0.416 0.156-0.169 0.581-0.145 0.789-0.105 0.101 0.020 0.211 0.076 0.322 0.133 0.046 0.024 0.093 0.048 0.139 0.069 0.012-0.022 0.033-0.036 0.056-0.043-0.387-0.394-0.756-0.801-1.091-1.227-0.101 0.014-0.214 0.055-0.33 0.097-0.279 0.101-0.578 0.209-0.793-0.024-0.317-0.344 0.279-0.544 0.563-0.511 0.096 0.011 0.19 0.036 0.281 0.068-0.244-0.35-0.43-0.724-0.56-1.117-0.001 0.001-0.002 0.001-0.004 0.002v0c-0.002 0.001-0.004 0.002-0.006 0.003 0.002-0.001 0.004-0.002 0.006-0.003s0.002-0.002 0.004-0.002c-0.013-0.039-0.026-0.079-0.037-0.118-0.022-0.011-0.043-0.020-0.053-0.023 0.129 0.081-0.415 0.121-0.516 0.128-0.225 0.016-0.527 0.023-0.692-0.146-0.139-0.141-0.13-0.35 0.039-0.468zM33.223 22.106c-0.010 0.119-0.033 0.229-0.078 0.319 0.033-0.103 0.059-0.209 0.078-0.319z"></path>
    <path fill="#f1f447" style="fill: var(--color2, #f1f447)" opacity="0.2" d="M12.645 2.591c-0.149-0.103-0.381-0.037-0.532 0.024-0.058 0.023-0.206 0.098-0.316 0.183 0.015-0.058 0.028-0.117 0.039-0.177 0.047-0.244 0.079-0.494 0.094-0.741 0.004-0.065-0.001-0.137-0.006-0.21v-0c-0.002-0.025-0.004-0.050-0.005-0.074 0.006-0.006 0.010-0.014 0.012-0.025 0.001 0.005 0.001 0.008 0.001 0.011 0 0.004 0.001 0.007 0.001 0.007s0.002-0.002 0.005-0.006c0.001-0.002 0.002-0.003 0.004-0.005 0.111-0.15 0.205-0.319 0.218-0.504 0.011-0.157-0.132-0.455-0.336-0.249-0.091 0.092-0.068 0.739 0.069 0.778-0.037 0.214-0.083 0.428-0.14 0.64-0.009-0.001-0.017-0.002-0.026-0 0.001-0.053 0.001-0.11-0.001-0.13-0.020-0.17-0.178-0.514-0.428-0.447-0.192 0.052-0.075 0.263-0.009 0.356 0.105 0.149 0.224 0.214 0.375 0.291 0.003 0.032 0.026 0.051 0.053 0.057-0.101 0.341-0.234 0.674-0.408 0.988l-0.005-0.020c-0.022-0.095-0.048-0.207-0.064-0.23-0.085-0.122-0.274-0.271-0.448-0.199-0.365 0.152 0.031 0.589 0.342 0.637 0.013 0.016 0.027 0.029 0.041 0.037-0.060 0.095-0.125 0.188-0.194 0.278-0.104 0.136-0.215 0.272-0.332 0.407-0.004-0.106-0.050-0.341-0.063-0.366-0.080-0.153-0.309-0.311-0.496-0.202-0.21 0.123-0.020 0.355 0.1 0.46 0.049 0.043 0.291 0.201 0.377 0.202-0.282 0.318-0.594 0.631-0.911 0.933 0.026-0.135 0.061-0.506 0.057-0.548-0.020-0.213-0.175-0.553-0.48-0.47-0.297 0.080-0.166 0.434-0.064 0.603 0.061 0.102 0.146 0.206 0.249 0.277 0.018 0.013 0.043 0.023 0.067 0.034 0.029 0.013 0.058 0.025 0.077 0.042 0.017 0.015 0.022 0.032 0.027 0.049s0.011 0.035 0.030 0.050c-0.171 0.162-0.344 0.321-0.513 0.476-0.080 0.073-0.162 0.144-0.244 0.215-0.045-0.017-0.109 0.005-0.106 0.063 0 0.008 0.003 0.016 0.005 0.022-0.062 0.052-0.125 0.104-0.189 0.156 0.002-0.015 0.001-0.036-0.002-0.065 0.046 0.058 0.044-0.027 0.042-0.092-0-0.023-0.001-0.043 0.001-0.054 0.007-0.042 0.015-0.083 0.024-0.124 0.019-0.088 0.037-0.176 0.036-0.267-0.002-0.193-0.137-0.517-0.423-0.402-0.262 0.106-0.167 0.392-0.068 0.571 0.063 0.114 0.148 0.215 0.238 0.312 0.016 0.017 0.034 0.041 0.051 0.064 0.026 0.034 0.052 0.068 0.071 0.081-0.244 0.197-0.493 0.388-0.742 0.58l-0 0c-0.112 0.086-0.223 0.171-0.335 0.258-0.005-0.019-0.009-0.038-0.012-0.055 0.007 0.007 0.016 0.010 0.029 0.010 0.003-0.014 0.008-0.034 0.014-0.057 0.069-0.282 0.278-1.143-0.288-0.976-0.415 0.123-0.123 0.871 0.187 1.133-0.188 0.146-0.374 0.295-0.556 0.447-0.131 0.11-0.259 0.225-0.382 0.343 0.064-0.153 0.123-0.351 0.084-0.508-0.057-0.229-0.325-0.445-0.586-0.315-0.326 0.163-0.075 0.386 0.16 0.595 0.12 0.107 0.236 0.21 0.269 0.299-0.39 0.387-0.723 0.817-0.946 1.307-0.242 0.533-0.467 1.248-0.343 1.844-0.023-0.262 0.075-0.591 0.144-0.822 0.009-0.031 0.018-0.061 0.026-0.089 0.104-0.358 0.251-0.707 0.445-1.033 0.311-0.523 0.721-0.967 1.195-1.37 0.108 0.034 0.225 0.097 0.322 0.149 0.059 0.032 0.111 0.060 0.149 0.074 0.181 0.070 0.529 0.171 0.644-0.051 0.114-0.218-0.176-0.341-0.355-0.389-0.173-0.047-0.33-0.041-0.492-0.003 0.251-0.201 0.508-0.395 0.764-0.589 0.047-0.036 0.094-0.071 0.142-0.107 0.065 0.048 0.137 0.118 0.214 0.192 0.243 0.235 0.53 0.513 0.787 0.286 0.388-0.344-0.353-0.692-0.669-0.665-0.039 0.003-0.076 0.011-0.113 0.021 0.322-0.247 0.64-0.499 0.94-0.769 0.054 0.009 0.139 0.080 0.242 0.166h0c0.231 0.193 0.55 0.458 0.79 0.249 0.173-0.151 0.114-0.386-0.053-0.521s-0.412-0.135-0.619-0.089c-0.089 0.020-0.172 0.057-0.249 0.103-0.003 0-0.006 0-0.010 0 0.295-0.268 0.592-0.542 0.879-0.826 0.005 0.001 0.010 0.003 0.015 0.004 0.017 0.019 0.046 0.026 0.073 0.022 0.014 0.004 0.029 0.009 0.044 0.014l0 0c0.227 0.070 0.518 0.161 0.744 0.122 0.166-0.029 0.317-0.151 0.177-0.301-0.114-0.122-0.425-0.104-0.576-0.075-0.074 0.014-0.154 0.055-0.235 0.096-0.034 0.017-0.068 0.035-0.101 0.050-0.009-0.016-0.024-0.026-0.041-0.031 0.283-0.285 0.552-0.58 0.797-0.887 0.074 0.010 0.156 0.040 0.241 0.070 0.204 0.073 0.422 0.151 0.579-0.018 0.232-0.249-0.204-0.393-0.411-0.37-0.070 0.008-0.139 0.026-0.205 0.050 0.178-0.253 0.314-0.524 0.41-0.808 0.001 0 0.002 0.001 0.003 0.001s0.003 0.001 0.004 0.002c-0.002-0.001-0.003-0.001-0.004-0.002s-0.002-0.001-0.003-0.002c0.010-0.028 0.019-0.057 0.027-0.086 0.016-0.008 0.031-0.014 0.039-0.017-0.094 0.059 0.303 0.087 0.377 0.092 0.164 0.012 0.384 0.016 0.505-0.105 0.101-0.102 0.095-0.253-0.028-0.338zM5.068 11.167c0.007 0.080 0.029 0.152 0.071 0.212-0.031-0.068-0.054-0.139-0.071-0.212z"></path>
    <path fill="#b45661" style="fill: var(--color3, #b45661)" opacity="0.48999999999999994" d="M28.784 16.63c0.805-0.038 1.802 0.39 1.888 1.187 0.062 0.579 0.043 1.156 0.14 1.734 0.077 0.462 0.24 0.906 0.463 1.326 0.214 0.405 0.659 0.749 0.775 1.182 0.074 0.276 0.032 0.663-0.069 0.933-0.123 0.328-0.058 0.302 0.188 0.577 0.482 0.539 0.917 1.091 1.224 1.735 0.443 0.927 0.733 2.010 0.569 3.025-0.021 0.129-0.046 0.591-0.241 0.624-0.218 0.036-0.116-0.228-0.104-0.314 0.074-0.545 0.14-1.022 0.051-1.575-0.345-2.136-2.028-3.543-3.125-5.355-0.060-0.093-0.188-0.316-0.276-0.463-0.14-0.232-0.28-0.673-0.469-0.845-0.356-0.324-0.029 0.327 0.041 0.451 0.088 0.157 0.184 0.324 0.274 0.462 0.411 0.639 0.87 1.336 1.295 1.994-1.837 0.381-3.131-1.629-3.624-2.95-0.406-1.089-0.892-3.634 1.001-3.727z"></path>
    <path fill="#e7502f" style="fill: var(--color4, #e7502f)" opacity="0.48999999999999994" d="M39.581 14.609c-1.346 0.097-2.211 0.906-2.613 2.037-0.217 0.61-0.242 1.236-0.362 1.862-0.181 0.942-0.572 1.657-1.334 2.328-0.236 0.208-0.41 0.421-0.534 0.65-0.245 0.228-0.459 0.486-0.616 0.802-0.201 0.403-0.257 0.886-0.026 1.288 0.062 0.108 0.218 0.325 0.379 0.423-0.603 1.168-0.934 2.448-0.897 3.726 0.023 0.771 0.064 1.543 0.112 2.314 0.013 0.207 0.087 0.549 0.198 0.202 0.102-0.318-0.026-0.816-0.038-1.147-0.057-1.615-0.107-3.084 0.624-4.593 0.077-0.158 0.158-0.315 0.242-0.471 0.005-0.003 0.010-0.006 0.014-0.009 0.003 0.002 0.006 0.005 0.009 0.007 0.005-0.009 0.013-0.019 0.021-0.031 0.024-0.023 0.046-0.052 0.066-0.084 0.065-0.082 0.138-0.178 0.138-0.231 0-0-0-0.001-0-0.001 0.452-0.672 0.97-1.307 1.499-1.929-0.004 0.005 0.574-0.712 0.485-0.316-0.043 0.191-0.468 0.554-0.64 0.756-0.38 0.45-0.826 1.020-1.196 1.571-0.050 0.026-0.12 0.154-0.171 0.249-0.028 0.048-0.054 0.097-0.080 0.14 1.313 0.395 2.335-0.4 3.031-1.326 0.001-0.001 0.002-0.002 0.002-0.003 0.212-0.256 0.429-0.509 0.7-0.711 0.453-0.337 0.937-0.397 1.471-0.563 1.455-0.453 2.074-2.169 2.27-3.442 0.222-1.437-0.863-3.64-2.756-3.498z"></path>
    <path fill="#e7502f" style="fill: var(--color4, #e7502f)" opacity="0.48999999999999994" d="M36.921 10.585c-1.382 1.309-2.050 3.125-2.578 4.832-0.591 1.906-0.981 3.842-0.996 5.825-0.010 1.302-0.049 2.613 0.035 3.914 0.030 0.462 0.080 0.925 0.161 1.382 0.007 0.038 0.187 1.058 0.359 0.82 0.098-0.135-0.185-1.058-0.206-1.212-0.12-0.866-0.148-1.739-0.142-2.611 0.010-1.436-0.037-2.865 0.123-4.297 0.024-0.214 0.043-0.438 0.098-0.647 0.059-0.222-0.016-0.125 0.177-0.213 0.187-0.085 0.419-0.073 0.613-0.181 0.771-0.426 1.166-1.519 1.473-2.236 0.351-0.82 0.565-1.695 0.735-2.559 0.125-0.634 0.215-1.265 0.265-1.907 0.016-0.202 0.017-0.414 0.061-0.613 0.012-0.054 0.071-0.149 0.069-0.196-0.005-0.101-0.071-0.16-0.077-0.244-0.058 0.047-0.115 0.096-0.17 0.146z"></path>
    <path fill="#e7502f" style="fill: var(--color4, #e7502f)" opacity="0.48999999999999994" d="M29.385 28.026c0 2.165 1.928 3.92 4.307 3.92s4.307-1.755 4.307-3.92z"></path>
    <path fill="#b45661" style="fill: var(--color3, #b45661)" opacity="0.48999999999999994" d="M36.644 24.594c1.066-0.071 2.257 0.711 2.771 1.526 0.414 0.657 0.345 1.519 0.089 2.217-0.172 0.467-0.546 1.133-1.17 1.14-0.781 0.008-0.818-0.87-0.834-1.383-0.020-0.683-0.115-1.277-0.706-1.742-0.073-0.057-0.15-0.111-0.226-0.165-0.068-0.048-0.136-0.095-0.201-0.146-0.010-0.008-0.021-0.016-0.032-0.024-0.209-0.16-0.428-0.328-0.455-0.591-0.039-0.382 0.198-0.45 0.56-0.38 0.012 0.002 0.044 0.013 0.087 0.028 0.185 0.064 0.579 0.2 0.504 0.037-0.028-0.061-0.13-0.11-0.26-0.146-0.335-0.033-0.734-0.071-0.849-0.048-1.239 0.247-1.721 1.809-1.849 2.801-0.014 0.107-0.025 0.215-0.035 0.322h-0.228c0.016-0.26 0.036-0.519 0.084-0.776 0.183-0.983 0.754-2.426 2.006-2.586 0.046-0.006 0.216-0.007 0.422 0.004 0.098-0.050 0.207-0.080 0.322-0.087z"></path>
    <path fill="#b45661" style="fill: var(--color3, #b45661)" opacity="0.25" d="M10.516 9.471c0.248-0.322 0.708-1.139 1.057-1.254 0.225-0.074 0.159 0.692 0.162 0.838 0.011 0.565-0.050 1.127-0.124 1.687-0.135 1.011-0.574 1.911-1.178 2.771-0.31 0.443-0.675 0.891-1.179 1.167-0.232 0.127-0.511 0.149-0.741 0.258-0.267 0.128-0.122 0.024-0.242 0.278-0.167 0.351-0.22 0.805-0.298 1.18-0.355 1.722-1.214 10.823-1.065 12.574 0.013 0.155-0.225 0.192-0.237 0.003-0.063-1.005 0.483-7.963 0.758-10.238s0.554-4.286 0.834-5.073c0.339-0.955 0.952-2.104 1.461-2.994 0.237-0.414 0.495-0.813 0.79-1.196z"></path>
    <path fill="#f1f447" style="fill: var(--color2, #f1f447)" opacity="0.25" d="M12.357 20.631c0.645-0.431 1.344 0.383 0.76 0.814-0.323 0.238-0.66 0.154-0.85-0.045-0.123 0.137-0.239 0.28-0.35 0.401-0.338 0.368-0.657 0.745-0.963 1.131-0.634 0.801-1.177 1.648-1.746 2.479-0.561 0.82-1.117 1.645-1.625 2.486-0.431 0.713-1.004 1.551-1.152 2.332 0.224-1.657 1.072-3.249 2.083-4.71 1.002-1.449 2.153-3.031 3.705-4.174-0.158-0.211-0.162-0.513 0.138-0.713z"></path>
    <path fill="#b45661" style="fill: var(--color3, #b45661)" opacity="0.25" d="M0.113 16.59c0.361 0.064 0.951 0.808 1.249 1.091 0.354 0.337 0.675 0.695 0.977 1.071 0.651 0.809 1.234 1.669 1.729 2.566 0.807 1.462 1.454 2.963 1.924 4.556 0.287 0.975 0.473 1.985 0.584 2.988 0.021 0.189 0.239 1.648-0.075 1.687-0.282 0.035-0.195-1.108-0.209-1.263-0.154-1.754-0.616-3.461-1.257-5.114-0.14-0.36-0.27-0.801-0.493-1.125-0.161-0.233-0.001-0.152-0.284-0.24-0.243-0.076-0.52-0.057-0.769-0.15-0.541-0.202-0.973-0.593-1.353-0.987-0.737-0.766-1.322-1.594-1.626-2.575-0.169-0.544-0.324-1.091-0.41-1.652-0.022-0.145-0.218-0.894 0.015-0.852z"></path>
    <path fill="#e7502f" style="fill: var(--color4, #e7502f)" opacity="0.25" d="M1.538 4.223c1.36 2.147 2.478 4.504 3.199 6.893 0.437 1.447 0.743 2.932 1.047 4.406 0.47 2.282 0.915 4.565 1.042 6.888 0.127 2.336 0.379 5.031-0.462 7.282 0.42-2.285 0.020-4.717-0.051-7.016-0.034-1.097-0.132-2.184-0.26-3.275-0.125-1.058-0.329-2.112-0.518-3.162-0.092-0.511-0.19-1.022-0.288-1.532-0.030-0.152-0.042-0.604-0.148-0.708s-0.652-0.147-0.823-0.224c-0.345-0.155-0.669-0.374-0.955-0.607-0.55-0.445-1.028-1.027-1.406-1.6-0.874-1.327-1.223-2.946-1.205-4.483 0.003-0.298 0.531-3.511 0.319-3.555 0.013-0.014 0.025-0.028 0.036-0.042 0.16 0.244 0.318 0.49 0.474 0.737z"></path>
    <path fill="#e7502f" style="fill: var(--color4, #e7502f)" opacity="0.25" d="M16.218 11.965c0.021-0.028 0.158-0.219 0.089-0.207 0.14-0.025-0.193 0.211 0.156 0.066-0.166 0.142-0.070 0.327-0.068 0.519 0.004 0.311-0.054 0.62-0.118 0.924-0.102 0.481-0.253 0.949-0.473 1.397-0.48 0.976-1.294 1.915-2.261 2.524-0.477 0.301-0.945 0.404-1.489 0.542-0.344 0.088-0.371 0.249-0.554 0.553-0.38 0.632-0.753 1.262-1.088 1.916-0.4 0.781-0.788 1.562-1.155 2.356-1.234 2.675-2.239 5.447-2.766 8.316-0.013-1.69 0.417-3.431 0.959-5.043 0.395-1.174 0.909-2.306 1.457-3.426 0.133-0.271 0.334-0.62 0.391-0.92 0.039-0.21-0.081-0.412-0.137-0.633-0.216-0.861-0.2-1.826-0.011-2.692 0.209-0.955 0.812-1.398 1.834-1.533 0.373-0.049 0.848-0.031 1.191-0.176 0.373-0.158 0.527-0.677 0.739-1.009 0.57-0.894 1.247-1.752 2.024-2.506 0.215-0.209 0.447-0.401 0.692-0.58 0.155-0.113 0.482-0.251 0.588-0.39z"></path>
    <path fill="#f1f447" style="fill: var(--color2, #f1f447)" opacity="0.25" d="M4.475 29.354c-0.026-0.162 0.112-0.308 0.292-0.308h3.624c0.18 0 0.318 0.146 0.292 0.308l-0.28 1.728c-0.085 0.527-0.582 0.917-1.167 0.917h-1.313c-0.585 0-1.082-0.39-1.168-0.917l-0.28-1.728z"></path>
    <path fill="#f58b3d" style="fill: var(--color1, #f58b3d)" d="M1.5 29.93c0 1.143 0.099 2.070 1.43 2.070s1.43-0.927 1.43-2.070z"></path>
    <path fill="#f58b3d" style="fill: var(--color1, #f58b3d)" d="M3.325 29.217c-0.049 0.077-0.092 0.155-0.131 0.234-0.001-0.164 0.009-0.328 0.036-0.495 0.046-0.286 0.117-0.571 0.184-0.855 0.048-0.204 0.045-0.571 0.226-0.734 0.050-0.035 0.062 0.034 0.062 0.064 0.001 0.006-0-0.122-0.049-0.1-0.287 0.135-0.381 0.56-0.473 0.773-0.134 0.31-0.248 0.628-0.296 0.951-0.012 0.082-0.018 0.163-0.020 0.245-0.010-0.022-0.019-0.044-0.029-0.066-0.166-0.354-0.39-0.7-0.669-1.018-0.069-0.078-0.933-0.852-1-0.733 0.007 0.017 0.021 0.031 0.042 0.043 0.001 0.001 0.001 0.001 0.001-0.001 0.051 0.075 0.195 0.19 0.24 0.255 0.113 0.165 0.201 0.339 0.29 0.51 0.189 0.362 0.364 0.727 0.534 1.094 0.039 0.085 0.081 0.17 0.123 0.255-0.433-0.569-1.011-1.085-1.807-1.38 0.272 0.126 0.45 0.362 0.633 0.544 0.221 0.219 0.454 0.431 0.676 0.65 0.262 0.258 0.569 0.529 0.821 0.814 0.244 0.466 0.48 0.932 0.627 1.421-0.060-0.169-0.005-0.403-0.015-0.58-0.008-0.141-0.026-0.281-0.051-0.421 0.031 0.063 0.057 0.126 0.069 0.185-0.011-0.098-0.024-0.196-0.037-0.294 0.035-0.091 0.069-0.176 0.092-0.246 0.118-0.359 0.259-0.712 0.451-1.056 0.178-0.318 0.381-0.633 0.603-0.937 0.103-0.142 0.208-0.284 0.313-0.425 0.068-0.093 0.133-0.242 0.228-0.33-0.614 0.511-1.285 1.025-1.675 1.639z"></path>
    <path fill="#f58b3d" style="fill: var(--color1, #f58b3d)" d="M40.574 5.894c-0.176-0.534-0.589-0.953-1.018-1.336-0.835-0.746-1.285-1.207-1.582-2.299-0.175-0.642-0.353-1.322-0.908-1.788-0.404-0.339-1.1-0.624-1.641-0.381-0.832 0.452-1.055 1.379-0.971 2.209 0.104 1.029 0.632 1.664 1.647 2.043 0.572 0.213 0.952 0.495 1.262 0.986 0.248 0.392 0.393 0.884 0.705 1.24 0.466 0.532 1.050 0.768 1.769 0.68-0.674-1.128-1.461-2.267-2.411-3.217-0.089-0.095-0.613-0.461-0.508-0.624 0.117-0.179 0.655 0.494 0.651 0.49 0.276 0.288 0.531 0.595 0.782 0.904-0 0-0.001 0-0.002 0.001 0.258 0.317 0.514 0.639 0.766 0.965 0.102 0.138 0.201 0.278 0.295 0.421 0.139 0.21 0.359 0.806 0.587 0.936 0.049 0.028 0.094 0.043 0.136 0.049 0.155 0.231 0.306 0.464 0.45 0.7 0.375 0.616 0.697 1.266 0.844 1.961 0.043 0.203 0.013 0.962 0.165 1.108 0.278 0.268 0.197-0.248 0.18-0.404-0.138-1.289-0.647-2.388-1.385-3.472 0.227-0.27 0.26-0.956 0.188-1.173z"></path>
    <path fill="#f58b3d" style="fill: var(--color1, #f58b3d)" d="M31.045 6.517c0.293-0.314 0.999-0.368 1.43-0.347 0.534 0.026 1.082 0.144 1.589 0.287 0.836 0.235 1.649 0.665 2.386 1.081 0.089 0.050 1.182 0.649 1.086 0.754s-1.17-0.607-1.409-0.729c-0.511-0.262-0.979-0.571-1.542-0.744-0.583-0.179-1.199-0.25-1.812-0.245-0.079 0.001-0.335-0.049-0.34 0.057-0.006 0.104 0.419 0.050 0.494 0.050 0.309 0.003 0.62 0.029 0.925 0.078 0.571 0.091 1.108 0.275 1.597 0.558-0.136 0.289-0.464 0.422-0.807 0.35-0.297-0.062-0.585-0.217-0.876-0.261-0.2-0.031-0.4-0.012-0.594 0.039-0.512 0.135-0.807 0.412-1.369 0.22-0.441-0.151-1.178-0.694-0.757-1.146z"></path>
    <path fill="#f58b3d" style="fill: var(--color1, #f58b3d)" d="M29.783 1.449c-0.651-0.043-1.379 0.43-1.693 0.922-0.253 0.397-0.211 0.918-0.054 1.34 0.105 0.282 0.334 0.685 0.715 0.689 0.477 0.005 0.5-0.526 0.509-0.836 0.012-0.413 0.070-0.772 0.431-1.053 0.045-0.035 0.091-0.067 0.138-0.1 0.041-0.029 0.083-0.058 0.123-0.088 0.007-0.005 0.013-0.010 0.019-0.015 0.128-0.097 0.262-0.198 0.278-0.357 0.024-0.231-0.121-0.272-0.342-0.229-0.007 0.001-0.027 0.008-0.053 0.017-0.113 0.038-0.354 0.121-0.308 0.022 0.017-0.037 0.080-0.066 0.159-0.088 0.205-0.020 0.449-0.043 0.519-0.029 0.757 0.149 1.052 1.093 1.13 1.693 0.009 0.068 0.016 0.136 0.022 0.204h0.139c-0.010-0.16-0.022-0.32-0.052-0.479-0.112-0.594-0.46-1.466-1.225-1.563-0.028-0.004-0.132-0.004-0.258 0.002-0.060-0.030-0.126-0.048-0.197-0.052z"></path>
</symbol>
<symbol id="icon-shop-now" viewBox="0 0 166 166">
    <path d="M57.4701 98.152C57.0017 98.4446 56.8593 99.0616 57.152 99.5299C57.4446 99.9983 58.0616 100.141 58.5299 99.848L57.4701 98.152ZM109.857 67.4298C109.981 66.8917 109.646 66.3547 109.108 66.2305L100.339 64.2059C99.8004 64.0817 99.2634 64.4172 99.1392 64.9553C99.0149 65.4935 99.3505 66.0304 99.8886 66.1547L107.684 67.9543L105.884 75.7492C105.76 76.2874 106.095 76.8243 106.633 76.9485C107.172 77.0728 107.708 76.7373 107.833 76.1991L109.857 67.4298ZM58.5299 99.848L109.413 68.0529L108.353 66.3568L57.4701 98.152L58.5299 99.848Z" fill="black"/>
    <path d="M148.689 88.8033C148.734 88.0247 148.884 87.2941 149.14 86.6118C149.408 85.9301 149.721 85.4014 150.08 85.0255L151.053 85.6588C150.743 86.0255 150.463 86.5021 150.212 87.0886C149.974 87.6758 149.836 88.2988 149.798 88.9577C149.746 89.8562 149.846 90.5111 150.098 90.9224C150.363 91.3344 150.729 91.554 151.196 91.581C151.544 91.6011 151.82 91.503 152.025 91.2864C152.241 91.0826 152.407 90.8038 152.524 90.4499C152.652 90.0968 152.766 89.7006 152.863 89.2616C152.961 88.8225 153.07 88.3841 153.192 87.9464C153.313 87.5206 153.473 87.1333 153.674 86.7843C153.886 86.436 154.161 86.1574 154.498 85.9485C154.834 85.7516 155.271 85.6688 155.81 85.7C156.325 85.7299 156.778 85.9004 157.169 86.2115C157.559 86.5226 157.853 86.9603 158.048 87.5245C158.255 88.1015 158.336 88.7913 158.289 89.5939C158.254 90.2049 158.134 90.811 157.931 91.4123C157.74 92.0142 157.501 92.5052 157.215 92.8853L156.223 92.2689C156.535 91.8663 156.764 91.4288 156.912 90.9566C157.071 90.485 157.165 90.0096 157.193 89.5304C157.242 88.6798 157.129 88.0422 156.853 87.6176C156.588 87.2056 156.228 86.9864 155.773 86.96C155.414 86.9392 155.126 87.0307 154.91 87.2345C154.693 87.4504 154.514 87.7345 154.374 88.0869C154.244 88.4521 154.131 88.8482 154.034 89.2753C153.937 89.7144 153.822 90.1465 153.689 90.5715C153.567 91.0092 153.406 91.4025 153.206 91.7515C153.016 92.1132 152.754 92.3925 152.418 92.5894C152.093 92.7989 151.673 92.8888 151.158 92.859C150.607 92.827 150.137 92.6435 149.748 92.3085C149.37 91.9861 149.084 91.5248 148.89 90.9246C148.708 90.337 148.641 89.63 148.689 88.8033Z" fill="black"/>
    <path d="M156.708 101.14C156.547 101.89 156.26 102.516 155.845 103.016C155.44 103.531 154.911 103.883 154.256 104.074C153.599 104.277 152.824 104.283 151.933 104.091L146.565 102.94L146.833 101.69L152.078 102.815C153.052 103.024 153.838 102.935 154.436 102.548C155.044 102.175 155.442 101.549 155.631 100.669C155.772 100.012 155.761 99.4082 155.597 98.8575C155.442 98.3211 155.141 97.8638 154.694 97.4857C154.257 97.1218 153.686 96.8644 152.982 96.7134L148.125 95.6711L148.393 94.4216L161.452 97.2235L161.184 98.473L154.83 97.1098L155.358 96.9654C155.964 97.4022 156.386 97.9836 156.622 98.7094C156.871 99.4378 156.9 100.248 156.708 101.14Z" fill="black"/>
    <path d="M144.038 109.692C144.384 108.848 144.884 108.164 145.539 107.642C146.201 107.135 146.945 106.824 147.77 106.708C148.607 106.597 149.458 106.719 150.324 107.074C151.201 107.433 151.893 107.944 152.4 108.605C152.907 109.267 153.213 110.008 153.318 110.829C153.422 111.65 153.299 112.488 152.949 113.343C152.594 114.209 152.091 114.898 151.44 115.409C150.785 115.932 150.047 116.245 149.226 116.35C148.401 116.466 147.549 116.344 146.672 115.984C145.806 115.629 145.114 115.119 144.596 114.453C144.084 113.802 143.773 113.059 143.662 112.222C143.562 111.39 143.687 110.547 144.038 109.692ZM145.087 110.122C144.828 110.754 144.737 111.372 144.814 111.974C144.902 112.581 145.145 113.128 145.542 113.615C145.946 114.117 146.486 114.508 147.163 114.785C147.852 115.067 148.511 115.169 149.14 115.089C149.764 115.021 150.316 114.799 150.793 114.424C151.282 114.054 151.654 113.558 151.909 112.936C152.164 112.315 152.247 111.7 152.159 111.093C152.081 110.491 151.846 109.941 151.454 109.443C151.062 108.945 150.521 108.555 149.833 108.273C149.155 107.995 148.497 107.894 147.856 107.969C147.227 108.048 146.668 108.273 146.179 108.643C145.701 109.018 145.337 109.511 145.087 110.122Z" fill="black"/>
    <path d="M138.584 120.298C139.019 119.608 139.571 119.084 140.238 118.724C140.915 118.371 141.658 118.216 142.468 118.259C143.282 118.318 144.126 118.623 144.998 119.174C145.871 119.725 146.504 120.351 146.898 121.054C147.302 121.763 147.485 122.496 147.447 123.252C147.41 124.009 147.17 124.737 146.728 125.438C146.248 126.199 145.646 126.77 144.923 127.151C144.204 127.548 143.426 127.724 142.589 127.679C141.762 127.639 140.948 127.367 140.146 126.861C139.334 126.348 138.733 125.728 138.342 124.998C137.951 124.269 137.775 123.491 137.814 122.665C137.847 121.848 138.104 121.059 138.584 120.298ZM138.311 114.358L149.256 121.265L148.602 122.3L146.197 120.782L144.666 119.667L142.956 118.801L137.628 115.439L138.311 114.358ZM139.591 120.828C139.232 121.396 139.039 121.983 139.011 122.59C138.993 123.203 139.134 123.788 139.434 124.347C139.745 124.912 140.209 125.389 140.828 125.78C141.448 126.171 142.074 126.381 142.707 126.412C143.34 126.443 143.93 126.318 144.476 126.038C145.021 125.758 145.474 125.334 145.832 124.766C146.191 124.198 146.382 123.602 146.407 122.979C146.425 122.366 146.284 121.78 145.983 121.222C145.677 120.673 145.214 120.204 144.595 119.813C143.976 119.423 143.348 119.204 142.711 119.156C142.077 119.126 141.488 119.25 140.942 119.53C140.4 119.827 139.95 120.259 139.591 120.828Z" fill="black"/>
    <path d="M134.814 139.885C134.257 140.414 133.667 140.769 133.042 140.948C132.418 141.144 131.781 141.136 131.133 140.925C130.476 140.721 129.834 140.289 129.205 139.628L125.423 135.649L126.349 134.769L130.045 138.656C130.731 139.378 131.43 139.748 132.143 139.766C132.855 139.802 133.537 139.509 134.19 138.889C134.677 138.426 135.008 137.921 135.183 137.374C135.358 136.844 135.368 136.297 135.212 135.732C135.057 135.185 134.731 134.651 134.235 134.129L130.812 130.528L131.738 129.648L138.249 136.497L137.362 137.34L135.576 135.462L136.054 135.677C136.308 136.38 136.328 137.098 136.114 137.831C135.908 138.572 135.475 139.257 134.814 139.885Z" fill="black"/>
    <path d="M119.632 139.736C120.39 139.229 121.187 138.943 122.022 138.875C122.855 138.825 123.645 138.983 124.394 139.348C125.15 139.724 125.788 140.301 126.308 141.079C126.834 141.868 127.123 142.678 127.173 143.51C127.224 144.342 127.063 145.127 126.69 145.866C126.318 146.605 125.748 147.231 124.979 147.744C124.201 148.264 123.399 148.554 122.573 148.615C121.738 148.682 120.951 148.529 120.212 148.157C119.462 147.791 118.825 147.214 118.298 146.426C117.778 145.647 117.49 144.837 117.433 143.995C117.372 143.17 117.53 142.379 117.905 141.624C118.288 140.878 118.863 140.249 119.632 139.736ZM120.261 140.679C119.692 141.058 119.272 141.52 118.999 142.062C118.733 142.615 118.629 143.204 118.686 143.83C118.74 144.472 118.97 145.097 119.376 145.706C119.789 146.325 120.279 146.777 120.845 147.063C121.401 147.356 121.982 147.48 122.587 147.436C123.2 147.403 123.786 147.199 124.344 146.826C124.903 146.453 125.316 145.99 125.582 145.438C125.854 144.895 125.967 144.308 125.92 143.675C125.873 143.043 125.643 142.418 125.23 141.799C124.823 141.19 124.334 140.738 123.761 140.442C123.195 140.156 122.606 140.03 121.993 140.064C121.388 140.107 120.81 140.312 120.261 140.679Z" fill="black"/>
    <path d="M112.033 144.379L118.942 151.746L117.812 152.214L111.463 145.355L111.979 145.142L112.257 154.515L111.243 154.935L104.844 148.097L105.36 147.883L105.671 157.242L104.59 157.69L104.283 147.589L105.397 147.127L111.479 153.531L111.13 153.676L110.919 144.841L112.033 144.379Z" fill="black"/>
    <path d="M92.8469 150.134C93.6186 150.02 94.3644 150.019 95.0845 150.131C95.8063 150.255 96.3876 150.455 96.8284 150.729L96.4055 151.811C95.9836 151.582 95.4601 151.404 94.8351 151.278C94.2117 151.164 93.5736 151.154 92.9206 151.251C92.0302 151.382 91.4093 151.613 91.0578 151.944C90.708 152.286 90.5673 152.689 90.6355 153.152C90.6863 153.497 90.8384 153.747 91.092 153.904C91.3354 154.074 91.6422 154.18 92.0124 154.223C92.3843 154.277 92.7951 154.308 93.2449 154.314C93.6946 154.321 94.1462 154.339 94.5994 154.369C95.0408 154.401 95.4527 154.48 95.8351 154.606C96.2192 154.743 96.5477 154.955 96.8206 155.243C97.0815 155.532 97.2514 155.943 97.3301 156.478C97.4054 156.988 97.3303 157.466 97.1049 157.912C96.8795 158.357 96.5103 158.733 95.9975 159.039C95.4745 159.359 94.8153 159.577 94.0199 159.695C93.4145 159.784 92.7967 159.79 92.1668 159.713C91.5386 159.648 91.0093 159.514 90.5791 159.31L90.9815 158.214C91.439 158.438 91.9139 158.574 92.4063 158.622C92.9004 158.683 93.3849 158.678 93.8598 158.608C94.7027 158.484 95.3041 158.244 95.6639 157.888C96.0137 157.545 96.1553 157.148 96.0888 156.697C96.0363 156.341 95.8883 156.078 95.6449 155.907C95.3896 155.739 95.0751 155.621 94.7014 155.555C94.3177 155.502 93.9068 155.472 93.469 155.464C93.0192 155.457 92.5728 155.432 92.1296 155.388C91.6764 155.358 91.2585 155.28 90.8761 155.155C90.4836 155.043 90.1569 154.842 89.8959 154.553C89.6248 154.278 89.4517 153.885 89.3764 153.374C89.2959 152.828 89.3802 152.33 89.6294 151.881C89.8684 151.446 90.2622 151.072 90.8107 150.761C91.349 150.463 92.0277 150.254 92.8469 150.134Z" fill="black"/>
    <path d="M82.194 160.489C81.426 160.483 80.7552 160.328 80.1815 160.024C79.5958 159.731 79.1432 159.284 78.8238 158.681C78.4925 158.079 78.3303 157.321 78.3374 156.409L78.3798 150.92L79.6577 150.929L79.6163 156.293C79.6086 157.289 79.8548 158.041 80.3549 158.549C80.8429 159.069 81.5369 159.332 82.4369 159.339C83.1089 159.344 83.6979 159.211 84.204 158.939C84.698 158.679 85.085 158.291 85.365 157.778C85.6329 157.276 85.7696 156.665 85.7752 155.945L85.8135 150.977L87.0915 150.987L86.9884 164.342L85.7104 164.332L85.7606 157.835L86.0088 158.323C85.7036 159.004 85.2194 159.535 84.5565 159.913C83.8935 160.304 83.106 160.496 82.194 160.489Z" fill="black"/>
    <path d="M71.3784 149.841C72.2756 150.005 73.0475 150.353 73.6942 150.886C74.3269 151.429 74.7851 152.092 75.0687 152.876C75.3502 153.671 75.4068 154.529 75.2384 155.45C75.0679 156.383 74.7113 157.165 74.1687 157.798C73.626 158.431 72.9638 158.883 72.1822 159.155C71.4005 159.427 70.5553 159.48 69.6463 159.314C68.7256 159.145 67.9478 158.796 67.3129 158.265C66.6662 157.732 66.2069 157.075 65.9351 156.293C65.6514 155.509 65.5949 154.651 65.7654 153.719C65.9337 152.798 66.2903 152.015 66.8351 151.371C67.366 150.736 68.0292 150.278 68.8248 149.996C69.6183 149.726 70.4695 149.675 71.3784 149.841ZM71.1745 150.956C70.5016 150.833 69.8785 150.872 69.3052 151.072C68.7296 151.284 68.2447 151.634 67.8503 152.123C67.4419 152.622 67.1719 153.232 67.0403 153.952C66.9064 154.683 66.9433 155.349 67.151 155.948C67.3468 156.545 67.6774 157.038 68.1429 157.429C68.6061 157.83 69.1683 158.092 69.8293 158.213C70.4904 158.333 71.1087 158.288 71.6842 158.076C72.2575 157.876 72.7473 157.532 73.1535 157.045C73.5597 156.558 73.8297 155.949 73.9635 155.217C74.0952 154.497 74.0583 153.832 73.8528 153.221C73.6452 152.622 73.3097 152.121 72.8465 151.719C72.381 151.329 71.8237 151.075 71.1745 150.956Z" fill="black"/>
    <path d="M59.8818 146.687C60.6468 146.971 61.2741 147.402 61.7635 147.98C62.2487 148.57 62.5539 149.265 62.6789 150.067C62.7885 150.875 62.6638 151.763 62.3048 152.731C61.9459 153.698 61.4632 154.447 60.8569 154.978C60.2465 155.519 59.5671 155.849 58.8189 155.969C58.0707 156.088 57.3085 156.004 56.5321 155.716C55.6883 155.403 55.0054 154.932 54.4835 154.303C53.9462 153.682 53.6136 152.957 53.4857 152.128C53.3536 151.312 53.4524 150.459 53.7822 149.57C54.1161 148.67 54.5995 147.953 55.2325 147.42C55.8655 146.887 56.5905 146.554 57.4074 146.422C58.2132 146.286 59.0379 146.374 59.8818 146.687ZM65.6386 145.194L61.137 157.328L59.9894 156.902L60.9786 154.236L61.7542 152.507L62.2491 150.656L64.4404 144.749L65.6386 145.194ZM59.5717 147.782C58.9416 147.548 58.3269 147.48 57.7275 147.577C57.124 147.686 56.5799 147.945 56.0954 148.354C55.6067 148.775 55.235 149.328 54.9804 150.014C54.7258 150.701 54.6487 151.357 54.7493 151.983C54.8498 152.609 55.0933 153.16 55.4798 153.636C55.8663 154.112 56.3746 154.467 57.0047 154.701C57.6348 154.934 58.2572 154.999 58.872 154.894C59.4756 154.785 60.0196 154.526 60.5042 154.117C60.9775 153.704 61.3414 153.154 61.596 152.468C61.8506 151.782 61.9354 151.122 61.8503 150.489C61.7498 149.863 61.5062 149.312 61.1197 148.836C60.7178 148.367 60.2018 148.015 59.5717 147.782Z" fill="black"/>
    <path d="M39.9277 146.989C39.2969 146.551 38.8304 146.044 38.5284 145.469C38.2097 144.897 38.0884 144.273 38.1645 143.595C38.2308 142.911 38.524 142.194 39.0443 141.445L42.1759 136.936L43.2257 137.665L40.1659 142.07C39.5978 142.888 39.3769 143.648 39.5034 144.349C39.6132 145.054 40.0378 145.663 40.7771 146.176C41.3291 146.559 41.8908 146.781 42.4622 146.842C43.0169 146.906 43.5548 146.804 44.0759 146.538C44.5802 146.275 45.0378 145.847 45.4485 145.256L48.2824 141.175L49.3321 141.904L43.9416 149.666L42.9362 148.968L44.4147 146.839L44.3001 147.351C43.6635 147.742 42.9646 147.907 42.2035 147.846C41.4354 147.795 40.6768 147.509 39.9277 146.989Z" fill="black"/>
    <path d="M37.0145 132.119C37.6641 132.759 38.1064 133.481 38.3413 134.285C38.5593 135.09 38.5652 135.896 38.3589 136.703C38.1442 137.519 37.7083 138.261 37.0512 138.927C36.3857 139.603 35.6507 140.049 34.8461 140.267C34.0415 140.485 33.2396 140.487 32.4403 140.272C31.6411 140.057 30.9124 139.625 30.2542 138.977C29.5875 138.32 29.141 137.593 28.9146 136.797C28.6796 135.993 28.6695 135.191 28.8844 134.392C29.0906 133.585 29.5265 132.843 30.192 132.168C30.8491 131.502 31.5841 131.055 32.3972 130.828C33.1932 130.602 33.9994 130.596 34.8156 130.811C35.6234 131.034 36.3563 131.47 37.0145 132.119ZM36.2184 132.926C35.7312 132.446 35.1943 132.128 34.6076 131.971C34.0125 131.822 33.4144 131.839 32.8132 132.022C32.195 132.204 31.629 132.556 31.1151 133.078C30.5928 133.608 30.2491 134.179 30.0838 134.791C29.91 135.394 29.9058 135.988 30.0713 136.573C30.2283 137.165 30.5462 137.698 31.0248 138.169C31.5035 138.641 32.0404 138.951 32.6355 139.099C33.2222 139.256 33.8204 139.248 34.4301 139.074C35.0398 138.9 35.6058 138.548 36.1281 138.018C36.642 137.496 36.9858 136.925 37.1595 136.305C37.3247 135.693 37.3289 135.09 37.1718 134.497C37.0063 133.913 36.6885 133.389 36.2184 132.926Z" fill="black"/>
    <path d="M30.9419 125.662L25.1518 133.937L24.461 132.927L29.8693 125.305L30.1842 125.766L21.0678 127.964L20.4481 127.057L25.8259 119.392L26.1408 119.852L17.0447 122.08L16.3844 121.114L26.2077 118.738L26.8884 119.734L21.8704 127.001L21.6571 126.689L30.2613 124.667L30.9419 125.662Z" fill="black"/>
    <path d="M21.3518 108.085C21.6231 108.816 21.7786 109.545 21.8181 110.273C21.8464 111.005 21.772 111.615 21.5947 112.103L20.4492 111.913C20.5857 111.453 20.6508 110.904 20.6446 110.267C20.6272 109.633 20.5037 109.007 20.2741 108.388C19.9611 107.545 19.6063 106.985 19.2098 106.71C18.802 106.439 18.3788 106.384 17.94 106.547C17.6137 106.668 17.4002 106.869 17.2995 107.149C17.1833 107.423 17.1429 107.745 17.1781 108.116C17.202 108.491 17.2575 108.899 17.3444 109.341C17.4314 109.782 17.507 110.227 17.5715 110.677C17.6317 111.115 17.6401 111.535 17.5965 111.935C17.5417 112.339 17.4021 112.704 17.1776 113.031C16.949 113.346 16.5815 113.598 16.0752 113.785C15.5914 113.965 15.1082 113.99 14.6254 113.862C14.1427 113.734 13.6985 113.451 13.2927 113.013C12.8715 112.567 12.5211 111.968 12.2414 111.214C12.0286 110.64 11.8944 110.037 11.8391 109.405C11.7725 108.777 11.7941 108.231 11.9038 107.768L13.0599 107.935C12.936 108.429 12.9012 108.922 12.9557 109.413C12.9989 109.909 13.1039 110.382 13.2709 110.832C13.5673 111.631 13.927 112.17 14.3502 112.448C14.758 112.719 15.1756 112.775 15.6032 112.617C15.9407 112.491 16.1675 112.292 16.2837 112.019C16.3956 111.734 16.4453 111.402 16.4326 111.023C16.4044 110.636 16.349 110.228 16.2662 109.798C16.1793 109.357 16.1113 108.915 16.0623 108.472C15.9979 108.023 15.9875 107.598 16.031 107.198C16.0591 106.79 16.1875 106.429 16.4162 106.114C16.6294 105.792 16.9779 105.541 17.4617 105.361C17.9792 105.169 18.4835 105.149 18.9746 105.299C19.4502 105.443 19.8972 105.751 20.3155 106.223C20.7184 106.688 21.0638 107.308 21.3518 108.085Z" fill="black"/>
    <path d="M9.07056 100.022C8.91801 99.2696 8.93155 98.5812 9.11116 97.9571C9.27663 97.3236 9.62121 96.7885 10.1449 96.3518C10.6662 95.9034 11.3738 95.5886 12.2676 95.4075L17.6483 94.3173L17.9021 95.5698L12.645 96.635C11.6688 96.8328 10.9838 97.2287 10.5899 97.8227C10.1819 98.4074 10.0673 99.1408 10.2461 100.023C10.3796 100.681 10.6316 101.23 11.0022 101.669C11.3587 102.099 11.8172 102.398 12.3778 102.566C12.9242 102.725 13.5502 102.733 14.2559 102.59L19.1249 101.603L19.3788 102.856L6.28876 105.508L6.03491 104.255L12.4035 102.965L11.9772 103.309C11.2473 103.15 10.6286 102.786 10.1211 102.215C9.6019 101.647 9.25172 100.916 9.07056 100.022Z" fill="black"/>
    <path d="M17.2548 87.2585C17.2794 88.1702 17.0977 88.9974 16.7096 89.7401C16.3092 90.4712 15.7549 91.0564 15.0465 91.4957C14.3261 91.9353 13.4981 92.1678 12.5624 92.193C11.6147 92.2186 10.7754 92.0312 10.0443 91.6308C9.3132 91.2304 8.73401 90.6759 8.3067 89.9672C7.8794 89.2585 7.65326 88.4423 7.6283 87.5186C7.60301 86.5829 7.78456 85.7497 8.17296 85.019C8.56103 84.2762 9.10943 83.6912 9.81814 83.2639C10.5265 82.8246 11.3546 82.5922 12.3022 82.5666C13.2379 82.5413 14.0772 82.7287 14.8203 83.1287C15.5511 83.5171 16.1363 84.0715 16.5759 84.7919C17.0035 85.5126 17.2298 86.3348 17.2548 87.2585ZM16.1212 87.2891C16.1027 86.6054 15.9364 86.0036 15.6222 85.4839C15.2961 84.9646 14.8531 84.5624 14.2932 84.2774C13.7209 83.9807 13.069 83.8423 12.3372 83.8621C11.5935 83.8822 10.9499 84.0556 10.4066 84.3824C9.86288 84.6972 9.44822 85.1226 9.1626 85.6585C8.86498 86.1947 8.72525 86.7987 8.7434 87.4705C8.76156 88.1422 8.93371 88.7378 9.25987 89.2572C9.57402 89.7769 10.0112 90.1852 10.5714 90.4822C11.1317 90.7792 11.7837 90.9176 12.5274 90.8975C13.2591 90.8777 13.9027 90.7043 14.458 90.3772C15.0014 90.0504 15.4219 89.6189 15.7195 89.0826C16.0051 88.5467 16.139 87.9489 16.1212 87.2891Z" fill="black"/>
    <path d="M17.95 75.2661C17.8308 76.0733 17.539 76.7763 17.0746 77.3751C16.5983 77.9721 15.981 78.415 15.2227 78.7036C14.4543 78.9787 13.5595 79.0411 12.5385 78.8908C11.5175 78.7406 10.6848 78.424 10.0405 77.941C9.38424 77.4563 8.9203 76.8604 8.64867 76.1533C8.37704 75.4462 8.30169 74.6831 8.42263 73.864C8.55409 72.9737 8.87335 72.208 9.38042 71.567C9.87736 70.9124 10.5177 70.4365 11.3015 70.1395C12.0735 69.8407 12.9284 69.7603 13.8663 69.8983C14.816 70.0381 15.6173 70.3622 16.27 70.8707C16.9227 71.3791 17.3984 72.0192 17.6968 72.7909C17.9971 73.5507 18.0815 74.3757 17.95 75.2661ZM20.6033 80.5871L7.79917 78.7028L7.97795 77.4919L10.7917 77.906L12.6431 78.3058L14.5571 78.4055L20.7899 79.3228L20.6033 80.5871ZM16.815 75.19C16.9131 74.5252 16.8523 73.9098 16.6327 73.3438C16.4011 72.776 16.0351 72.2977 15.5345 71.9086C15.0221 71.5179 14.4038 71.2692 13.6796 71.1626C12.9554 71.056 12.2974 71.1169 11.7058 71.3452C11.1141 71.5735 10.6253 71.9261 10.2395 72.403C9.85373 72.8799 9.61175 73.4507 9.51359 74.1155C9.41544 74.7803 9.48126 75.4025 9.71106 75.9822C9.94262 76.5499 10.3087 77.0283 10.8092 77.4174C11.3115 77.7945 11.9248 78.0364 12.649 78.1429C13.3732 78.2495 14.0362 78.1955 14.638 77.9808C15.2297 77.7525 15.7184 77.3999 16.1042 76.923C16.4799 76.4325 16.7168 75.8548 16.815 75.19Z" fill="black"/>
    <path d="M13.5559 55.6515C13.8551 54.9442 14.255 54.3837 14.7557 53.9701C15.2501 53.5407 15.8367 53.2937 16.5155 53.229C17.199 53.1533 17.9608 53.293 18.8008 53.6482L23.8572 55.7866L23.3593 56.9636L18.4189 54.8743C17.5016 54.4864 16.7126 54.4263 16.0521 54.6942C15.3851 54.9463 14.8763 55.4869 14.5257 56.3157C14.2639 56.9346 14.1619 57.5299 14.2198 58.1016C14.2712 58.6576 14.4808 59.1631 14.8485 59.6183C15.2099 60.0578 15.7221 60.4177 16.3853 60.6982L20.9609 62.6332L20.463 63.8102L11.7593 60.1294L12.2362 59.0021L14.6235 60.0117L14.0987 60.0048C13.5856 59.4621 13.2808 58.812 13.1843 58.0546C13.0767 57.2925 13.2005 56.4915 13.5559 55.6515Z" fill="black"/>
    <path d="M27.505 49.7591C27.0097 50.525 26.392 51.1044 25.6519 51.4976C24.9082 51.8741 24.12 52.0433 23.2873 52.005C22.4445 51.9603 21.6301 51.6838 20.844 51.1756C20.0479 50.6609 19.4616 50.0318 19.085 49.2882C18.7085 48.5446 18.5444 47.7597 18.5928 46.9336C18.6411 46.1075 18.9162 45.3065 19.418 44.5306C19.9263 43.7447 20.5472 43.1602 21.2808 42.7771C22.021 42.384 22.8041 42.2115 23.6303 42.2599C24.4631 42.2981 25.2775 42.5746 26.0736 43.0893C26.8596 43.5975 27.4459 44.2266 27.8326 44.9767C28.2156 45.7102 28.3848 46.4984 28.34 47.341C28.2851 48.1772 28.0067 48.9833 27.505 49.7591ZM26.5527 49.1435C26.9241 48.5691 27.1272 47.9788 27.162 47.3726C27.1868 46.7598 27.0488 46.1776 26.7482 45.626C26.444 45.0578 25.9845 44.575 25.3698 44.1775C24.745 43.7736 24.1161 43.5528 23.4831 43.515C22.8567 43.4672 22.2741 43.5836 21.7354 43.8641C21.1867 44.138 20.7299 44.5572 20.3649 45.1214C20 45.6857 19.8052 46.2742 19.7805 46.887C19.7457 47.4932 19.8753 48.0772 20.1694 48.6389C20.4636 49.2006 20.923 49.6834 21.5478 50.0874C22.1625 50.4848 22.7914 50.7056 23.4345 50.7499C24.0675 50.7876 24.6583 50.6694 25.2071 50.3955C25.7457 50.115 26.1943 49.6977 26.5527 49.1435Z" fill="black"/>
    <path d="M32.5631 42.5066L23.2861 38.5127L24.1358 37.6317L32.6954 41.3841L32.3081 41.7857L28.3093 33.3044L29.0715 32.514L37.6687 36.2275L37.2813 36.6291L33.2575 28.1737L34.0697 27.3316L38.386 36.4691L37.5488 37.3371L29.4149 33.8953L29.6773 33.6232L33.4003 41.6386L32.5631 42.5066Z" fill="black"/>
    <path d="M47.6584 29.6061C46.9987 30.0223 46.317 30.3249 45.6131 30.5136C44.9027 30.6923 44.2905 30.7452 43.7762 30.6724L43.7253 29.5126C44.2038 29.5512 44.7544 29.5017 45.3771 29.3642C45.9934 29.2165 46.5806 28.9666 47.1388 28.6143C47.8999 28.134 48.3743 27.6715 48.5618 27.2268C48.743 26.7719 48.7087 26.3466 48.4589 25.9509C48.2731 25.6566 48.0326 25.4891 47.7373 25.4484C47.4458 25.3912 47.1221 25.418 46.7664 25.529C46.4043 25.6298 46.0163 25.7682 45.6024 25.9442C45.1885 26.1203 44.7682 26.2862 44.3414 26.442C43.9248 26.5914 43.5163 26.686 43.1158 26.7259C42.7088 26.7557 42.3225 26.6944 41.9567 26.5421C41.6011 26.3834 41.2792 26.0757 40.9909 25.619C40.7155 25.1827 40.5907 24.7152 40.6165 24.2165C40.6423 23.7177 40.8277 23.2247 41.1728 22.7373C41.5217 22.2334 42.0361 21.7669 42.716 21.3378C43.2336 21.0112 43.796 20.7556 44.4033 20.5711C45.0041 20.3764 45.5424 20.285 46.0182 20.2969L46.094 21.4623C45.5851 21.4429 45.0956 21.5106 44.6256 21.6653C44.1492 21.8098 43.7081 22.0101 43.3021 22.2663C42.5816 22.721 42.1289 23.184 41.944 23.6555C41.7628 24.1103 41.7939 24.5306 42.0373 24.9162C42.2295 25.2206 42.4713 25.4014 42.7629 25.4587C43.0646 25.5095 43.3997 25.4896 43.7682 25.399C44.1404 25.2918 44.5285 25.1533 44.9322 24.9837C45.3461 24.8076 45.7646 24.65 46.1876 24.5108C46.6143 24.355 47.0279 24.2572 47.4285 24.2173C47.8328 24.1608 48.2127 24.2119 48.5683 24.3706C48.9277 24.5128 49.2451 24.8021 49.5205 25.2384C49.8151 25.7052 49.9394 26.1943 49.8933 26.7059C49.851 27.2008 49.642 27.7016 49.2665 28.2082C48.8946 28.6983 48.3586 29.1642 47.6584 29.6061Z" fill="black"/>
    <path d="M53.2032 15.8037C53.9083 15.4993 54.5847 15.3707 55.2325 15.4178C55.8865 15.4491 56.4812 15.676 57.0165 16.0984C57.5629 16.516 58.0168 17.1435 58.3784 17.9807L60.555 23.0208L59.3817 23.5274L57.255 18.603C56.8602 17.6886 56.3315 17.0999 55.6689 16.837C55.0126 16.5583 54.2714 16.5973 53.4451 16.9541C52.8281 17.2204 52.343 17.5802 51.9897 18.0333C51.6427 18.4707 51.4447 18.981 51.3959 19.5641C51.3534 20.1314 51.4748 20.7456 51.7603 21.4066L53.7299 25.9674L52.5566 26.474L47.2614 14.2125L48.4347 13.706L51.011 19.6715L50.5869 19.3252C50.5912 18.5783 50.8201 17.8978 51.2738 17.2837C51.7228 16.6585 52.3659 16.1652 53.2032 15.8037Z" fill="black"/>
    <path d="M67.1818 21.228C66.2947 21.4396 65.4478 21.432 64.641 21.205C63.8432 20.9636 63.1564 20.5414 62.5808 19.9386C62.0023 19.324 61.6044 18.5616 61.3872 17.6511C61.1671 16.729 61.1778 15.8691 61.4192 15.0713C61.6605 14.2735 62.0841 13.5926 62.6897 13.0286C63.2953 12.4647 64.0475 12.0755 64.9463 11.8611C65.8567 11.6438 66.7095 11.6501 67.5045 11.8799C68.3113 12.1068 68.9966 12.5232 69.5606 13.1288C70.1363 13.7317 70.5342 14.4941 70.7542 15.4162C70.9715 16.3267 70.9609 17.1866 70.7222 17.9961C70.4925 18.7911 70.0704 19.4778 69.4559 20.0562C68.8386 20.623 68.0805 21.0136 67.1818 21.228ZM66.9185 20.125C67.5839 19.9662 68.1385 19.6797 68.5824 19.2654C69.0236 18.8393 69.326 18.3231 69.4897 17.7165C69.6622 17.0955 69.6635 16.429 69.4936 15.717C69.3209 14.9933 69.0187 14.3992 68.5871 13.9347C68.1672 13.4674 67.6656 13.1491 67.0824 12.9799C66.4964 12.7989 65.8765 12.7864 65.2229 12.9424C64.5692 13.0983 64.0218 13.3893 63.5807 13.8153C63.1367 14.2297 62.8271 14.7415 62.6517 15.3508C62.4764 15.9602 62.4751 16.6267 62.6478 17.3504C62.8177 18.0624 63.1199 18.6565 63.5543 19.1326C63.9859 19.5972 64.4947 19.9199 65.0807 20.1008C65.6639 20.2701 66.2765 20.2781 66.9185 20.125Z" fill="black"/>
    <path d="M78.8082 19.4474C77.9938 19.4977 77.2457 19.3576 76.564 19.027C75.8816 18.6845 75.3209 18.1721 74.882 17.4899C74.4543 16.7949 74.2086 15.9324 74.1449 14.9024C74.0812 13.8724 74.2192 12.9922 74.5588 12.2618C74.8976 11.5195 75.3849 10.9424 76.0207 10.5304C76.6565 10.1184 77.3876 9.88683 78.2141 9.83575C79.1123 9.78024 79.9274 9.93425 80.6592 10.2978C81.4023 10.6486 82 11.1768 82.4524 11.8822C82.904 12.5757 83.1591 13.3955 83.2176 14.3417C83.2768 15.2999 83.1251 16.1508 82.7623 16.8946C82.3995 17.6384 81.8713 18.2362 81.1779 18.6878C80.4964 19.1387 79.7065 19.3919 78.8082 19.4474ZM74.1494 23.1438L73.3509 10.2265L74.5726 10.151L74.748 12.9896L74.7389 14.8837L75.0363 16.777L75.425 23.065L74.1494 23.1438ZM78.6484 18.3211C79.3192 18.2797 79.9088 18.0929 80.4172 17.7609C80.925 17.417 81.3175 16.9599 81.5949 16.3897C81.8715 15.8075 81.9872 15.1511 81.942 14.4205C81.8969 13.6899 81.7016 13.0588 81.3561 12.5271C81.0106 11.9954 80.5648 11.5901 80.0185 11.3113C79.4723 11.0324 78.8638 10.9137 78.1931 10.9552C77.5224 10.9966 76.9271 11.1897 76.4074 11.5344C75.8997 11.8784 75.5071 12.3355 75.2298 12.9057C74.9644 13.4751 74.8543 14.1252 74.8995 14.8558C74.9446 15.5864 75.1343 16.2239 75.4686 16.7683C75.814 17.3 76.2599 17.7053 76.8061 17.9841C77.3636 18.2502 77.9777 18.3626 78.6484 18.3211Z" fill="black"/>
    <path d="M97.5281 11.0836C98.282 11.2303 98.9129 11.506 99.421 11.9105C99.9431 12.3055 100.306 12.8285 100.509 13.4793C100.724 14.1325 100.745 14.9066 100.57 15.8018L99.521 21.1906L98.2666 20.9464L99.2918 15.6813C99.4822 14.7037 99.3782 13.9193 98.9798 13.3283C98.5955 12.7278 97.9617 12.3416 97.0782 12.1696C96.4186 12.0412 95.8151 12.0643 95.2676 12.2389C94.7342 12.404 94.2827 12.7134 93.9132 13.1672C93.5577 13.6115 93.3112 14.1869 93.1736 14.8937L92.224 19.7701L90.9696 19.5259L92.7758 10.2501L93.9772 10.484L93.4818 13.0282L93.3804 12.5133C93.8056 11.8993 94.3788 11.4668 95.1 11.216C95.8236 10.9534 96.6329 10.9093 97.5281 11.0836Z" fill="black"/>
    <path d="M106.118 23.4859C105.267 23.1591 104.572 22.6742 104.035 22.031C103.513 21.381 103.185 20.6446 103.051 19.822C102.922 18.9881 103.024 18.1343 103.36 17.2604C103.699 16.3754 104.194 15.672 104.845 15.1503C105.495 14.6286 106.229 14.3063 107.047 14.1833C107.866 14.0604 108.706 14.1645 109.569 14.4955C110.443 14.8309 111.143 15.318 111.669 15.9568C112.206 16.6 112.536 17.3307 112.659 18.1491C112.793 18.9717 112.69 19.8256 112.35 20.7106C112.015 21.5845 111.52 22.2878 110.866 22.8207C110.227 23.3467 109.49 23.6747 108.656 23.8045C107.827 23.9231 106.981 23.8169 106.118 23.4859ZM106.524 22.4272C107.163 22.6723 107.782 22.7494 108.383 22.6585C108.988 22.5563 109.529 22.3014 110.007 21.8935C110.5 21.4788 110.878 20.9297 111.141 20.2463C111.407 19.5517 111.494 18.8909 111.4 18.2637C111.318 17.6409 111.084 17.0949 110.699 16.6256C110.318 16.1452 109.813 15.7846 109.186 15.5438C108.558 15.3031 107.942 15.2337 107.338 15.3358C106.737 15.4268 106.192 15.674 105.703 16.0775C105.214 16.4811 104.836 17.0302 104.57 17.7247C104.307 18.4081 104.221 19.069 104.31 19.7073C104.403 20.3344 104.641 20.8882 105.022 21.3687C105.407 21.8379 105.908 22.1908 106.524 22.4272Z" fill="black"/>
    <path d="M114.465 27.0457L116.495 17.1525L117.53 17.8057L115.591 26.9476L115.119 26.6498L122.615 21.0141L123.543 21.6001L121.65 30.7707L121.178 30.473L128.643 24.8181L129.632 25.4425L121.559 31.5221L120.539 30.8785L122.26 22.2164L122.58 22.4182L115.485 27.6893L114.465 27.0457Z" fill="black"/>
    <path d="M130.179 39.2443C129.637 38.6828 129.202 38.0767 128.875 37.4258C128.556 36.7665 128.38 36.1778 128.347 35.6596L129.472 35.3745C129.532 35.8508 129.692 36.3798 129.953 36.9616C130.222 37.5351 130.586 38.0594 131.044 38.5344C131.669 39.1822 132.218 39.5529 132.692 39.6463C133.174 39.7315 133.584 39.6116 133.921 39.2868C134.171 39.0452 134.286 38.7758 134.266 38.4784C134.263 38.1813 134.171 37.8699 133.991 37.5442C133.818 37.2101 133.604 36.8583 133.348 36.4887C133.091 36.1191 132.844 35.7413 132.604 35.355C132.374 34.9775 132.198 34.5966 132.078 34.2126C131.966 33.8202 131.948 33.4295 132.023 33.0405C132.106 32.6601 132.342 32.2825 132.731 31.9077C133.102 31.5496 133.535 31.3326 134.028 31.2567C134.522 31.1808 135.042 31.2624 135.59 31.5014C136.154 31.7408 136.715 32.1499 137.273 32.7286C137.698 33.1691 138.063 33.6679 138.367 34.225C138.679 34.7738 138.878 35.2823 138.963 35.7506L137.837 36.0611C137.752 35.5589 137.587 35.0934 137.34 34.6646C137.102 34.2275 136.816 33.8362 136.483 33.4907C135.892 32.8774 135.346 32.5281 134.847 32.4426C134.365 32.3575 133.96 32.4732 133.631 32.7897C133.372 33.0396 133.244 33.313 133.247 33.6101C133.259 33.9158 133.346 34.2399 133.51 34.5823C133.69 34.925 133.904 35.2768 134.152 35.6377C134.409 36.0073 134.648 36.385 134.87 36.7709C135.109 37.1572 135.289 37.5423 135.409 37.9264C135.547 38.3107 135.574 38.6931 135.49 39.0735C135.424 39.4541 135.205 39.8235 134.834 40.1817C134.436 40.5648 133.983 40.7857 133.472 40.8443C132.979 40.9033 132.446 40.8002 131.874 40.5352C131.318 40.2706 130.753 39.8402 130.179 39.2443Z" fill="black"/>
    <path d="M144.718 41.7377C145.161 42.3653 145.426 43.0008 145.512 43.6444C145.616 44.2909 145.516 44.9194 145.212 45.5299C144.916 46.1503 144.395 46.7233 143.649 47.2489L139.163 50.4128L138.426 49.3685L142.81 46.2771C143.624 45.7031 144.091 45.065 144.213 44.3627C144.351 43.6633 144.161 42.9458 143.642 42.2104C143.254 41.6613 142.803 41.2603 142.287 41.0075C141.787 40.7576 141.247 40.6686 140.666 40.7405C140.102 40.8152 139.526 41.06 138.938 41.475L134.878 44.3381L134.141 43.2938L145.056 35.5965L145.793 36.6409L140.482 40.3857L140.734 39.8997C141.466 39.7507 142.179 39.8352 142.874 40.1532C143.578 40.4643 144.192 40.9924 144.718 41.7377Z" fill="black"/>
    <path d="M142.357 56.6758C141.967 55.8512 141.801 55.0208 141.857 54.1847C141.929 53.3543 142.201 52.5956 142.673 51.9084C143.156 51.2161 143.82 50.6702 144.667 50.2706C145.524 49.8659 146.368 49.6997 147.198 49.7721C148.029 49.8446 148.782 50.1192 149.459 50.5961C150.135 51.073 150.67 51.7292 151.065 52.5647C151.465 53.4111 151.634 54.2469 151.572 55.0721C151.516 55.9082 151.249 56.6644 150.772 57.3407C150.301 58.0279 149.636 58.5738 148.779 58.9785C147.932 59.3781 147.089 59.5442 146.247 59.477C145.422 59.4154 144.663 59.1433 143.971 58.6607C143.289 58.173 142.751 57.5114 142.357 56.6758ZM143.382 56.1917C143.674 56.8102 144.069 57.2942 144.565 57.6435C145.073 57.9878 145.64 58.1777 146.268 58.2133C146.911 58.2547 147.564 58.1191 148.225 57.8066C148.898 57.489 149.418 57.0713 149.784 56.5535C150.155 56.0466 150.363 55.4903 150.409 54.8848C150.466 54.2742 150.35 53.665 150.063 53.0574C149.777 52.4497 149.379 51.9738 148.872 51.6295C148.375 51.2802 147.81 51.0822 147.178 51.0358C146.546 50.9893 145.893 51.1249 145.22 51.4425C144.558 51.755 144.039 52.1727 143.662 52.6956C143.296 53.2134 143.085 53.7776 143.028 54.3882C142.982 54.9937 143.1 55.5949 143.382 56.1917Z" fill="black"/>
    <path d="M146.468 67.6959C146.252 66.9091 146.235 66.1482 146.419 65.4132C146.614 64.675 147 64.0211 147.578 63.4516C148.17 62.8904 148.964 62.473 149.959 62.1993C150.954 61.9256 151.844 61.88 152.629 62.0625C153.425 62.2418 154.09 62.6004 154.623 63.1381C155.157 63.6758 155.534 64.3438 155.753 65.1421C155.992 66.0099 156.009 66.8392 155.803 67.63C155.612 68.4292 155.218 69.1226 154.62 69.7101C154.034 70.2944 153.284 70.7123 152.37 70.9637C151.445 71.2183 150.581 71.2443 149.778 71.0419C148.976 70.8394 148.282 70.4452 147.698 69.8592C147.117 69.2847 146.707 68.5636 146.468 67.6959ZM141.894 63.8947L154.373 60.4627L154.697 61.6429L151.955 62.3971L150.099 62.7768L148.307 63.4563L142.233 65.127L141.894 63.8947ZM147.538 67.3084C147.716 67.9563 148.02 68.495 148.449 68.9246C148.89 69.3509 149.418 69.6413 150.033 69.7957C150.659 69.947 151.326 69.9256 152.031 69.7315C152.737 69.5373 153.315 69.2167 153.764 68.7695C154.214 68.3223 154.519 67.8028 154.68 67.2109C154.84 66.6191 154.832 65.9992 154.653 65.3513C154.475 64.7034 154.164 64.1605 153.72 63.7225C153.279 63.2962 152.751 63.0058 152.136 62.8513C151.524 62.7085 150.866 62.7341 150.16 62.9282C149.454 63.1223 148.869 63.4388 148.405 63.8776C147.955 64.3248 147.65 64.8443 147.489 65.4362C147.343 66.0364 147.359 66.6604 147.538 67.3084Z" fill="black"/>
</symbol>
<svg id="icon-ellipse" viewBox="0 0 64 64" xmlns="http://www.w3.org/2000/svg">
    <circle cx="32" cy="32" r="31.5" stroke="black"/>
</svg>
<svg id="white-ae-logo" width="74" height="58" viewBox="0 0 74 58" fill="none" xmlns="http://www.w3.org/2000/svg">
    <path d="M18.72 14.2C24.5867 14.2 29.0667 15.64 32.16 18.52C35.3067 21.4 36.88 25.6933 36.88 31.4V57H29.6V51.4C28.32 53.3733 26.48 54.8933 24.08 55.96C21.7333 56.9733 18.9333 57.48 15.68 57.48C10.9333 57.48 7.12 56.3333 4.24 54.04C1.41333 51.7466 0 48.7333 0 45C0 41.2666 1.36 38.28 4.08 36.04C6.8 33.7466 11.12 32.6 17.04 32.6H29.2V31.08C29.2 27.7733 28.24 25.24 26.32 23.4799C24.4 21.72 21.5733 20.84 17.84 20.84C15.3333 20.84 12.88 21.2666 10.48 22.12C8.08 22.92 6.05333 24.0133 4.4 25.4L1.2 19.64C3.38667 17.88 6 16.5466 9.04 15.64C12.08 14.68 15.3067 14.2 18.72 14.2ZM16.96 51.56C19.8933 51.56 22.4267 50.92 24.56 49.64C26.6933 48.3066 28.24 46.44 29.2 44.04V38.12H17.36C10.8533 38.12 7.6 40.3066 7.6 44.68C7.6 46.8133 8.42667 48.4933 10.08 49.72C11.7333 50.9466 14.0267 51.56 16.96 51.56Z" fill="white"/>
    <path d="M73.5999 36.04C73.5999 36.6266 73.5465 37.4 73.4399 38.36H39.0399C39.5199 42.0933 41.1465 45.1066 43.9199 47.4C46.7465 49.64 50.2399 50.76 54.3999 50.76C59.4665 50.76 63.5465 49.0533 66.6399 45.64L70.8799 50.6C68.9599 52.84 66.5599 54.5466 63.6799 55.72C60.8532 56.8933 57.6799 57.48 54.1599 57.48C49.6799 57.48 45.7065 56.5733 42.2399 54.76C38.7732 52.8933 36.0799 50.3066 34.1599 47C32.2932 43.6933 31.3599 39.96 31.3599 35.8C31.3599 31.6933 32.2665 27.9866 34.0799 24.68C35.9465 21.3733 38.4799 18.8133 41.6799 17C44.9332 15.1333 48.5865 14.2 52.6399 14.2C56.6932 14.2 60.2932 15.1333 63.4399 17C66.6399 18.8133 69.1199 21.3733 70.8799 24.68C72.6932 27.9866 73.5999 31.7733 73.5999 36.04ZM52.6399 20.68C48.9599 20.68 45.8665 21.8 43.3599 24.04C40.9065 26.28 39.4665 29.2133 39.0399 32.84H66.2399C65.8132 29.2666 64.3465 26.36 61.8399 24.12C59.3865 21.8266 56.3199 20.68 52.6399 20.68Z" fill="white"/>
    <path fill-rule="evenodd" clip-rule="evenodd" d="M68 6H40V0H68V6Z" fill="white"/>
</svg>
</defs>
</svg>
