<svg aria-hidden="true" style="position: absolute; width: 0; height: 0; overflow: hidden;" version="1.1" xmlns="http://www.w3.org/2000/svg" xmlns:xlink="http://www.w3.org/1999/xlink">
<defs>
<symbol id="icon-icon-menu" viewBox="0 0 32 32">
<path fill="none" stroke="#fff" style="stroke: var(--color1, #fff)" stroke-linejoin="round" stroke-linecap="round" stroke-miterlimit="4" stroke-width="2.6667" d="M24 8l-16 16M8 8l16 16"></path>
</symbol>
<symbol id="icon-down-arrow-right" viewBox="0 0 32 32">
<path fill="#fff" style="fill: var(--color1, #fff)" d="M0 0h32v32h-32v-32z"></path>
<path fill="#fff" style="fill: var(--color2, #fff)" d="M-110.080-1505.28h204.8v1888.64h-204.8v-1888.64z"></path>
<path fill="#000" style="fill: var(--color3, #000)" d="M21.674 14.79l1.203 0.818-22.876 0.001v0.64l22.733-0.001-1.133 0.651 0.319 0.555 2.608-1.498-2.493-1.695-0.36 0.529z"></path>
</symbol>
<symbol id="icon-down-arrow-left" viewBox="0 0 32 32">
<path fill="#fff" style="fill: var(--color1, #fff)" d="M0 0h32v32h-32v-32z"></path>
<path fill="#fff" style="fill: var(--color2, #fff)" d="M-62.080-1505.28h204.8v1888.64h-204.8v-1888.64z"></path>
<path fill="#000" style="fill: var(--color3, #000)" d="M7.703 17.067l-1.203-0.818 22.876-0.001v-0.64l-22.733 0.001 1.133-0.651-0.319-0.555-2.608 1.498 2.493 1.695 0.36-0.529z"></path>
</symbol>
<symbol id="icon-icon-menu" viewBox="0 0 32 32">
<path fill="none" stroke="#fff" style="stroke: var(--color1, #fff)" stroke-linejoin="round" stroke-linecap="round" stroke-miterlimit="4" stroke-width="2.6667" d="M24 8l-16 16M8 8l16 16"></path>
</symbol>
<symbol id="icon-down-arrow-right" viewBox="0 0 32 32">
<path fill="#fff" style="fill: var(--color1, #fff)" d="M0 0h32v32h-32v-32z"></path>
<path fill="#fff" style="fill: var(--color2, #fff)" d="M-110.080-1505.28h204.8v1888.64h-204.8v-1888.64z"></path>
<path fill="#000" style="fill: var(--color3, #000)" d="M21.674 14.79l1.203 0.818-22.876 0.001v0.64l22.733-0.001-1.133 0.651 0.319 0.555 2.608-1.498-2.493-1.695-0.36 0.529z"></path>
</symbol>
<symbol id="icon-down-arrow-left" viewBox="0 0 32 32">
<path fill="#fff" style="fill: var(--color1, #fff)" d="M0 0h32v32h-32v-32z"></path>
<path fill="#fff" style="fill: var(--color2, #fff)" d="M-62.080-1505.28h204.8v1888.64h-204.8v-1888.64z"></path>
<path fill="#000" style="fill: var(--color3, #000)" d="M7.703 17.067l-1.203-0.818 22.876-0.001v-0.64l-22.733 0.001 1.133-0.651-0.319-0.555-2.608 1.498 2.493 1.695 0.36-0.529z"></path>
</symbol>
</defs>
</svg>
<symbol id="icon-close" viewBox="0 0 32 32">
<path d="M29.262 0.055c-0.661 0.112-0.391-0.139-7.063 6.526l-6.199 6.192-12.107-12.105-1.611 1.614-1.614 1.611 12.105 12.107-6.194 6.199c-4.247 4.251-6.231 6.272-6.306 6.425-0.455 0.914-0.32 1.918 0.359 2.642 0.271 0.296 0.619 0.516 1.013 0.629l0.016 0.004c0.539 0.167 1.161 0.105 1.717-0.171 0.153-0.075 2.174-2.059 6.425-6.306l6.199-6.194 12.107 12.105 1.611-1.614 1.614-1.611-12.105-12.107 6.194-6.199c4.247-4.251 6.231-6.272 6.306-6.425 0.48-0.962 0.295-2.039-0.471-2.754-0.537-0.503-1.221-0.695-1.995-0.567z"></path>
</symbol>
<symbol id="icon-Error-logo" viewBox="0 0 32 32">
<path d="M0 16c0-8.838 7.162-16 16-16s16 7.162 16 16c0 8.837-7.163 16-16 16s-16-7.163-16-16zM10.938 13.006l2.944 2.938-2.944 2.994c-0.581 0.588-0.581 1.538 0 2.069 0.588 0.637 1.537 0.637 2.069 0l2.938-2.888 2.994 2.888c0.588 0.637 1.538 0.637 2.069 0 0.637-0.531 0.637-1.481 0-2.069l-2.888-2.994 2.888-2.938c0.637-0.531 0.637-1.481 0-2.069-0.531-0.581-1.481-0.581-2.069 0l-2.994 2.944-2.938-2.944c-0.531-0.581-1.481-0.581-2.069 0-0.581 0.588-0.581 1.537 0 2.069z"></path>
</symbol>
<symbol id="icon-correct-logo" viewBox="0 0 32 32">
<path d="M0 16c0-8.838 7.162-16 16-16s16 7.162 16 16c0 8.837-7.163 16-16 16s-16-7.163-16-16zM23.237 13.238c0.681-0.681 0.681-1.794 0-2.475s-1.794-0.681-2.475 0l-6.763 6.762-2.763-2.762c-0.681-0.681-1.794-0.681-2.475 0s-0.681 1.794 0 2.475l4 4c0.681 0.681 1.794 0.681 2.475 0l8-8z"></path>
</symbol>
</defs>
</svg>
