<svg aria-hidden="true" style="position: absolute; width: 0; height: 0; overflow: hidden;" version="1.1" xmlns="http://www.w3.org/2000/svg" xmlns:xlink="http://www.w3.org/1999/xlink">
    <defs>
      <symbol id="icon-icon-menu" viewBox="0 0 32 32">
          <path fill="none" stroke="#fff" style="stroke: var(--color1, #fff)" stroke-linejoin="round" stroke-linecap="round" stroke-miterlimit="4" stroke-width="2.6667" d="M24 8l-16 16M8 8l16 16"></path>
      </symbol>
      <symbol id="icon-down-arrow-right" viewBox="0 0 32 32">
          <path fill="#fff" style="fill: var(--color1, #fff)" d="M0 0h32v32h-32v-32z"></path>
          <path fill="#fff" style="fill: var(--color2, #fff)" d="M-110.080-1505.28h204.8v1888.64h-204.8v-1888.64z"></path>
          <path fill="#000" style="fill: var(--color3, #000)" d="M21.674 14.79l1.203 0.818-22.876 0.001v0.64l22.733-0.001-1.133 0.651 0.319 0.555 2.608-1.498-2.493-1.695-0.36 0.529z"></path>
      </symbol>
      <symbol id="icon-down-arrow-left" viewBox="0 0 32 32">
          <path fill="#fff" style="fill: var(--color1, #fff)" d="M0 0h32v32h-32v-32z"></path>
          <path fill="#fff" style="fill: var(--color2, #fff)" d="M-62.080-1505.28h204.8v1888.64h-204.8v-1888.64z"></path>
          <path fill="#000" style="fill: var(--color3, #000)" d="M7.703 17.067l-1.203-0.818 22.876-0.001v-0.64l-22.733 0.001 1.133-0.651-0.319-0.555-2.608 1.498 2.493 1.695 0.36-0.529z"></path>
      </symbol>
      <symbol id="icon-close" viewBox="0 0 32 32">
          <path d="M29.262 0.055c-0.661 0.112-0.391-0.139-7.063 6.526l-6.199 6.192-12.107-12.105-1.611 1.614-1.614 1.611 12.105 12.107-6.194 6.199c-4.247 4.251-6.231 6.272-6.306 6.425-0.455 0.914-0.32 1.918 0.359 2.642 0.271 0.296 0.619 0.516 1.013 0.629l0.016 0.004c0.539 0.167 1.161 0.105 1.717-0.171 0.153-0.075 2.174-2.059 6.425-6.306l6.199-6.194 12.107 12.105 1.611-1.614 1.614-1.611-12.105-12.107 6.194-6.199c4.247-4.251 6.231-6.272 6.306-6.425 0.48-0.962 0.295-2.039-0.471-2.754-0.537-0.503-1.221-0.695-1.995-0.567z"></path>
      </symbol>
      <symbol id="icon-Error-logo" viewBox="0 0 32 32">
          <path d="M0 16c0-8.838 7.162-16 16-16s16 7.162 16 16c0 8.837-7.163 16-16 16s-16-7.163-16-16zM10.938 13.006l2.944 2.938-2.944 2.994c-0.581 0.588-0.581 1.538 0 2.069 0.588 0.637 1.537 0.637 2.069 0l2.938-2.888 2.994 2.888c0.588 0.637 1.538 0.637 2.069 0 0.637-0.531 0.637-1.481 0-2.069l-2.888-2.994 2.888-2.938c0.637-0.531 0.637-1.481 0-2.069-0.531-0.581-1.481-0.581-2.069 0l-2.994 2.944-2.938-2.944c-0.531-0.581-1.481-0.581-2.069 0-0.581 0.588-0.581 1.537 0 2.069z"></path>
      </symbol>
      <symbol id="icon-correct-logo" viewBox="0 0 32 32">
          <path d="M0 16c0-8.838 7.162-16 16-16s16 7.162 16 16c0 8.837-7.163 16-16 16s-16-7.163-16-16zM23.237 13.238c0.681-0.681 0.681-1.794 0-2.475s-1.794-0.681-2.475 0l-6.763 6.762-2.763-2.762c-0.681-0.681-1.794-0.681-2.475 0s-0.681 1.794 0 2.475l4 4c0.681 0.681 1.794 0.681 2.475 0l8-8z"></path>
      </symbol>
      <symbol id="icon-facebook" viewBox="0 0 28 28">
          <path d="M21.0003 2.33334H17.5003C15.9532 2.33334 14.4695 2.94792 13.3755 4.04188C12.2816 5.13584 11.667 6.61957 11.667 8.16667V11.6667H8.16699V16.3333H11.667V25.6667H16.3337V16.3333H19.8337L21.0003 11.6667H16.3337V8.16667C16.3337 7.85725 16.4566 7.5605 16.6754 7.34171C16.8942 7.12292 17.1909 7 17.5003 7H21.0003V2.33334Z" stroke="white" stroke-width="2" stroke-linecap="round" stroke-linejoin="round"/>
      </symbol>
      <symbol id="icon-instagram" viewBox="0 0 28 28">
          <path d="M19.833 2.33334H8.16634C4.94468 2.33334 2.33301 4.94501 2.33301 8.16667V19.8333C2.33301 23.055 4.94468 25.6667 8.16634 25.6667H19.833C23.0547 25.6667 25.6663 23.055 25.6663 19.8333V8.16667C25.6663 4.94501 23.0547 2.33334 19.833 2.33334Z" stroke="white" stroke-width="2" stroke-linecap="round" stroke-linejoin="round"/>
          <path d="M18.6667 13.265C18.8106 14.236 18.6448 15.2276 18.1927 16.0989C17.7406 16.9701 17.0253 17.6766 16.1485 18.118C15.2718 18.5593 14.2782 18.7129 13.3091 18.5569C12.34 18.401 11.4447 17.9434 10.7506 17.2494C10.0566 16.5553 9.599 15.66 9.44306 14.6909C9.28712 13.7218 9.44073 12.7282 9.88203 11.8514C10.3233 10.9747 11.0299 10.2594 11.9011 9.80728C12.7724 9.3552 13.764 9.18935 14.735 9.33333C15.7254 9.4802 16.6423 9.94171 17.3503 10.6497C18.0583 11.3577 18.5198 12.2746 18.6667 13.265Z" stroke="white" stroke-width="2" stroke-linecap="round" stroke-linejoin="round"/>
          <path d="M20.417 7.58334H20.4281" stroke="white" stroke-width="2" stroke-linecap="round" stroke-linejoin="round"/>
      </symbol>
    </defs>
</svg>
