<svg xmlns="http://www.w3.org/2000/svg" aria-hidden="true" style="position:absolute;width:0;height:0;overflow:hidden">
<defs>

<symbol id="facebook" viewBox="0 0 28 28">
    <path d="M21.0003 2.33334H17.5003C15.9532 2.33334 14.4695 2.94792 13.3755 4.04188C12.2816 5.13584 11.667 6.61957 11.667 8.16667V11.6667H8.16699V16.3333H11.667V25.6667H16.3337V16.3333H19.8337L21.0003 11.6667H16.3337V8.16667C16.3337 7.85725 16.4566 7.5605 16.6754 7.34171C16.8942 7.12292 17.1909 7 17.5003 7H21.0003V2.33334Z" stroke="white" stroke-width="2" stroke-linecap="round" stroke-linejoin="round"/>
</symbol>

<symbol id="instagram" viewBox="0 0 28 28">
    <path d="M19.833 2.33334H8.16634C4.94468 2.33334 2.33301 4.94501 2.33301 8.16667V19.8333C2.33301 23.055 4.94468 25.6667 8.16634 25.6667H19.833C23.0547 25.6667 25.6663 23.055 25.6663 19.8333V8.16667C25.6663 4.94501 23.0547 2.33334 19.833 2.33334Z" stroke="white" stroke-width="2" stroke-linecap="round" stroke-linejoin="round"/>
    <path d="M18.6667 13.265C18.8106 14.236 18.6448 15.2276 18.1927 16.0989C17.7406 16.9701 17.0253 17.6766 16.1485 18.118C15.2718 18.5593 14.2782 18.7129 13.3091 18.5569C12.34 18.401 11.4447 17.9434 10.7506 17.2494C10.0566 16.5553 9.599 15.66 9.44306 14.6909C9.28712 13.7218 9.44073 12.7282 9.88203 11.8514C10.3233 10.9747 11.0299 10.2594 11.9011 9.80728C12.7724 9.3552 13.764 9.18935 14.735 9.33333C15.7254 9.4802 16.6423 9.94171 17.3503 10.6497C18.0583 11.3577 18.5198 12.2746 18.6667 13.265Z" stroke="white" stroke-width="2" stroke-linecap="round" stroke-linejoin="round"/>
    <path d="M20.417 7.58334H20.4281" stroke="white" stroke-width="2" stroke-linecap="round" stroke-linejoin="round"/>
</symbol>
    <symbol id="icon-Logo" viewBox="0 0 41 32">
      <path d="M16.241 31.144v-4.916l-.219-.922v-8.384c0-1.785-.527-3.16-1.58-4.126-1.024-.995-2.575-1.492-4.653-1.492-1.375 0-2.721.234-4.038.702-1.317.439-2.429 1.039-3.336 1.8L.659 10.645c1.2-.966 2.634-1.697 4.302-2.195a17.807 17.807 0 0 1 5.311-.79c3.19 0 5.648.775 7.374 2.326s2.59 3.921 2.59 7.111v14.047h-3.994zm-7.637.263c-1.727 0-3.248-.293-4.565-.878-1.288-.585-2.283-1.39-2.985-2.414C.352 27.062 0 25.876 0 24.559c0-1.258.293-2.4.878-3.424.615-1.024 1.595-1.844 2.941-2.458 1.375-.615 3.219-.922 5.531-.922h7.375v3.029H9.526c-2.107 0-3.526.351-4.258 1.053s-1.097 1.551-1.097 2.546c0 1.141.454 2.063 1.361 2.765.907.673 2.166 1.01 3.775 1.01 1.58 0 2.956-.351 4.126-1.053 1.2-.702 2.063-1.727 2.59-3.073l.834 2.897c-.556 1.375-1.536 2.473-2.941 3.292-1.405.79-3.175 1.185-5.311 1.185z"/>
      <path d="M29.718 31.407c-2.487 0-4.682-.512-6.584-1.536-1.873-1.024-3.336-2.429-4.39-4.214-1.024-1.785-1.536-3.834-1.536-6.145s.497-4.36 1.492-6.145c1.024-1.785 2.414-3.175 4.17-4.17 1.785-1.024 3.79-1.536 6.014-1.536 2.253 0 4.243.498 5.97 1.492s3.073 2.4 4.038 4.214c.995 1.785 1.492 3.878 1.492 6.277 0 .176-.015.38-.044.614 0 .234-.015.454-.044.659H20.499v-3.029h17.602l-1.712 1.053c.029-1.492-.278-2.824-.922-3.995s-1.536-2.078-2.678-2.722c-1.112-.673-2.414-1.01-3.907-1.01-1.463 0-2.765.337-3.907 1.01-1.141.644-2.034 1.566-2.678 2.765-.644 1.171-.966 2.517-.966 4.038v.702c0 1.551.351 2.941 1.053 4.17.732 1.2 1.741 2.136 3.029 2.809s2.765 1.01 4.433 1.01c1.375 0 2.619-.234 3.731-.702a8.183 8.183 0 0 0 2.985-2.107l2.327 2.721c-1.053 1.229-2.37 2.166-3.951 2.809-1.551.644-3.292.966-5.224.966zM37.311 3.292H21.947V0h15.364v3.292z"/>
    </symbol>
    <symbol id="icon-tel" viewBox="0 0 32 32">
      <path d="m29.276 6.061-3.873-3.869a2.5 2.5 0 0 0-3.55 0l-4.171 4.163a2.509 2.509 0 0 0 0 3.556l3.258 3.261a14.754 14.754 0 0 1-3.142 4.629 14.78 14.78 0 0 1-4.625 3.149l-3.258-3.261a2.5 2.5 0 0 0-1.775-.738 2.482 2.482 0 0 0-1.775.738L2.19 21.852a2.509 2.509 0 0 0 0 3.556l3.869 3.869a4.355 4.355 0 0 0 3.062 1.269c.236 0 .465-.018.698-.058 4.814-.793 9.593-3.356 13.451-7.21 3.855-3.861 6.415-8.639 7.215-13.456a4.335 4.335 0 0 0-1.211-3.76zm-1.367 3.327c-.709 4.287-3.015 8.563-6.487 12.035S13.676 27.2 9.389 27.909a1.711 1.711 0 0 1-1.484-.48l-3.8-3.8 4.029-4.032 4.389 4.396.785-.291A17.504 17.504 0 0 0 23.697 13.31l.291-.785-4.393-4.389 4.029-4.032 3.8 3.8a1.7 1.7 0 0 1 .484 1.483z"/>
    </symbol>
    <symbol id="icon-nav-menu-button" viewBox="0 0 32 32">
      <path d="M4 5.333h24V8H4V5.333zm8 9.334h16v2.667H12v-2.667zM4 24h24v2.667H4V24z"/>
    </symbol>
</defs>
</svg>